<?xml version="1.0" encoding="UTF-8" standalone="no"?>
<!-- Created with Inkscape (http://www.inkscape.org/) -->

<svg
   width="500mm"
   height="500mm"
   viewBox="30 30 500.00003 500.00003"
   version="1.1"
   id="svg1"
   xml:space="preserve"
   inkscape:version="1.3.2 (1:1.3.2+202311252150+091e20ef0f)"
   sodipodi:docname="icon.svg"
   xmlns:inkscape="http://www.inkscape.org/namespaces/inkscape"
   xmlns:sodipodi="http://sodipodi.sourceforge.net/DTD/sodipodi-0.dtd"
   xmlns="http://www.w3.org/2000/svg"
   xmlns:svg="http://www.w3.org/2000/svg"
   xmlns:rdf="http://www.w3.org/1999/02/22-rdf-syntax-ns#"
   xmlns:cc="http://creativecommons.org/ns#"
   xmlns:dc="http://purl.org/dc/elements/1.1/"><title
     id="title12">Chakras</title><sodipodi:namedview
     id="namedview1"
     pagecolor="#505050"
     bordercolor="#eeeeee"
     borderopacity="1"
     inkscape:showpageshadow="0"
     inkscape:pageopacity="0"
     inkscape:pagecheckerboard="0"
     inkscape:deskcolor="#505050"
     inkscape:document-units="mm"
     inkscape:zoom="0.35355339"
     inkscape:cx="585.48442"
     inkscape:cy="810.34437"
     inkscape:window-width="1920"
     inkscape:window-height="1149"
     inkscape:window-x="0"
     inkscape:window-y="25"
     inkscape:window-maximized="1"
     inkscape:current-layer="layer1" /><defs
     id="defs1"><filter
       inkscape:collect="always"
       style="color-interpolation-filters:sRGB"
       id="filter6"
       x="-0.018615246"
       y="-0.022271754"
       width="1.0372305"
       height="1.0445435"><feGaussianBlur
         inkscape:collect="always"
         stdDeviation="3.3178164"
         id="feGaussianBlur6" /></filter></defs><g
     inkscape:label="Layer 1"
     inkscape:groupmode="layer"
     id="layer1"
     transform="translate(129.57714,162.64742)"><g
       id="g512"
       transform="matrix(7.3857202,0,0,7.3857202,-99.706862,-131.91797)"><g
         id="g478"
         inkscape:label="background" /><g
         inkscape:label="Layer 1"
         id="g502"
         style="display:none"><path
           id="path478"
           style="fill:#f9f9f9;fill-opacity:0.01;stroke:none;stroke-width:1.05833;stroke-dasharray:none;stroke-opacity:1"
           d="m 33.866657,0.84163649 c -5.186346,8.98301361 -18.69859,22.01273251 0,32.80836851 18.698589,-10.795637 5.186345,-23.8253549 0,-32.80836851 z"
           inkscape:transform-center-y="-16.404184" /><path
           id="path479"
           style="fill:#f9f9f9;fill-opacity:0.01;stroke:none;stroke-width:1.05833;stroke-dasharray:none;stroke-opacity:1"
           d="M 42.025766,1.8723718 C 34.768374,9.2833757 18.440283,18.543384 33.866657,33.650005 54.662561,27.843683 44.815188,11.862959 42.025766,1.8723718 Z"
           inkscape:transform-center-y="-15.888816"
           inkscape:transform-center-x="-3.2613879" /><path
           id="path480"
           style="fill:#f9f9f9;fill-opacity:0.01;stroke:none;stroke-width:1.05833;stroke-dasharray:none;stroke-opacity:1"
           d="M 49.672208,4.8998126 C 40.799779,10.273146 22.681795,15.181603 33.866657,33.650005 55.453193,33.19783 49.889438,15.270228 49.672208,4.8998126 Z"
           inkscape:transform-center-y="-14.375096"
           inkscape:transform-center-x="-6.5333264" /><path
           id="path481"
           style="fill:#f9f9f9;fill-opacity:0.01;stroke:none;stroke-width:1.05833;stroke-dasharray:none;stroke-opacity:1"
           d="M 56.32553,9.7337336 C 46.395551,12.73177 27.626093,12.98026 33.866657,33.650005 54.887464,38.580389 53.956917,19.832366 56.32553,9.7337336 Z"
           inkscape:transform-center-y="-11.552636"
           inkscape:transform-center-x="-10.607591" /><path
           id="path482"
           style="fill:#f9f9f9;fill-opacity:0.01;stroke:none;stroke-width:1.05833;stroke-dasharray:none;stroke-opacity:1"
           d="M 61.567678,16.070402 C 51.204086,16.504764 32.962508,12.077673 33.866657,33.650005 53.00092,43.653154 56.762052,25.262717 61.567678,16.070402 Z"
           inkscape:transform-center-y="-7.3940547"
           inkscape:transform-center-x="-13.834316" /><path
           id="path483"
           style="fill:#f9f9f9;fill-opacity:0.01;stroke:none;stroke-width:1.05833;stroke-dasharray:none;stroke-opacity:1"
           d="M 65.069269,23.511661 C 54.923247,21.355056 38.355734,12.530555 33.866657,33.650005 49.9121,48.097384 58.128585,31.220072 65.069269,23.511661 Z"
           inkscape:transform-center-y="-4.0736817"
           inkscape:transform-center-x="-15.601306" /><path
           id="path484"
           style="fill:#f9f9f9;fill-opacity:0.01;stroke:none;stroke-width:1.05833;stroke-dasharray:none;stroke-opacity:1"
           d="M 66.610285,31.58995 C 57.319345,26.977885 43.466895,14.310449 33.866657,33.650005 45.815086,51.633832 57.970652,37.330109 66.610285,31.58995 Z"
           inkscape:transform-center-y="-0.81697684"
           inkscape:transform-center-x="-16.371814" /><path
           id="path485"
           style="fill:#f9f9f9;fill-opacity:0.01;stroke:none;stroke-width:1.05833;stroke-dasharray:none;stroke-opacity:1"
           d="M 66.093899,39.79768 C 58.241824,33.019948 47.974838,17.305519 33.866657,33.650005 40.967308,54.04029 56.298176,43.208912 66.093899,39.79768 Z"
           inkscape:transform-center-y="2.4480562"
           inkscape:transform-center-x="-16.113621" /><path
           id="path486"
           style="fill:#f9f9f9;fill-opacity:0.01;stroke:none;stroke-width:1.05833;stroke-dasharray:none;stroke-opacity:1"
           d="M 63.552556,47.619129 C 57.632722,39.1016 51.596312,21.327573 33.866657,33.650005 35.67337,55.165552 53.216245,48.487093 63.552556,47.619129 Z"
           inkscape:transform-center-y="5.7038682"
           inkscape:transform-center-x="-14.842949" /><path
           id="path487"
           style="fill:#f9f9f9;fill-opacity:0.01;stroke:none;stroke-width:1.05833;stroke-dasharray:none;stroke-opacity:1"
           d="M 59.145939,54.562846 C 55.530311,44.840708 54.103767,26.123891 33.866657,33.650005 c -3.600747,21.288908 15.051851,19.183 25.279282,20.912841 z"
           inkscape:transform-center-y="9.5856983"
           inkscape:transform-center-x="-12.412266" /><path
           id="path488"
           style="fill:#f9f9f9;fill-opacity:0.01;stroke:none;stroke-width:1.05833;stroke-dasharray:none;stroke-opacity:1"
           d="M 53.150932,60.192532 C 52.066693,49.876663 55.339649,31.393102 33.866657,33.650005 25.084698,53.374613 43.675008,55.973579 53.150932,60.192532 Z"
           inkscape:transform-center-y="13.176697"
           inkscape:transform-center-x="-8.4946862" /><path
           id="path489"
           style="fill:#f9f9f9;fill-opacity:0.01;stroke:none;stroke-width:1.05833;stroke-dasharray:none;stroke-opacity:1"
           d="M 45.944223,64.154454 C 47.4595,53.893037 55.226304,36.804123 33.866657,33.650005 20.455289,50.570944 37.815213,57.71148 45.944223,64.154454 Z"
           inkscape:transform-center-y="15.252225"
           inkscape:transform-center-x="-4.8866005" /><path
           id="path490"
           style="fill:#f9f9f9;fill-opacity:0.01;stroke:none;stroke-width:1.05833;stroke-dasharray:none;stroke-opacity:1"
           d="M 37.978636,66.199669 C 41.998218,56.637467 53.770854,42.016959 33.866657,33.650005 16.668565,46.70407 31.707316,57.93751 37.978636,66.199669 Z"
           inkscape:transform-center-y="16.274833"
           inkscape:transform-center-x="-1.6331893" /><path
           id="path491"
           style="fill:#f9f9f9;fill-opacity:0.01;stroke:none;stroke-width:1.05833;stroke-dasharray:none;stroke-opacity:1"
           d="M 29.754678,66.199669 C 36.026001,57.93751 51.06475,46.704068 33.866657,33.650005 13.962461,42.016961 25.735099,56.637467 29.754678,66.199669 Z"
           inkscape:transform-center-y="16.274833"
           inkscape:transform-center-x="1.6331894" /><path
           id="path492"
           style="fill:#f9f9f9;fill-opacity:0.01;stroke:none;stroke-width:1.05833;stroke-dasharray:none;stroke-opacity:1"
           d="M 21.789091,64.154454 C 29.918104,57.71148 47.278027,50.570942 33.866657,33.650005 12.50701,36.804125 20.273817,53.893037 21.789091,64.154454 Z"
           inkscape:transform-center-y="15.252225"
           inkscape:transform-center-x="4.8866006" /><path
           id="path493"
           style="fill:#f9f9f9;fill-opacity:0.01;stroke:none;stroke-width:1.05833;stroke-dasharray:none;stroke-opacity:1"
           d="M 14.582382,60.192532 C 24.058309,55.973579 42.648618,53.374612 33.866657,33.650005 12.393665,31.393104 15.666624,49.876663 14.582382,60.192532 Z"
           inkscape:transform-center-y="13.176697"
           inkscape:transform-center-x="8.4946871" /><path
           id="path494"
           style="fill:#f9f9f9;fill-opacity:0.01;stroke:none;stroke-width:1.05833;stroke-dasharray:none;stroke-opacity:1"
           d="M 8.5873749,54.562845 C 18.814809,52.833006 37.467406,54.938912 33.866657,33.650005 13.629547,26.123893 12.203006,44.840708 8.5873749,54.562845 Z"
           inkscape:transform-center-y="9.5856983"
           inkscape:transform-center-x="12.412267" /><path
           id="path495"
           style="fill:#f9f9f9;fill-opacity:0.01;stroke:none;stroke-width:1.05833;stroke-dasharray:none;stroke-opacity:1"
           d="M 4.1807582,47.619128 C 14.517072,48.487094 32.059946,55.165552 33.866657,33.650005 16.137001,21.327575 10.100595,39.1016 4.1807582,47.619128 Z"
           inkscape:transform-center-y="5.7038689"
           inkscape:transform-center-x="14.84295" /><path
           id="path496"
           style="fill:#f9f9f9;fill-opacity:0.01;stroke:none;stroke-width:1.05833;stroke-dasharray:none;stroke-opacity:1"
           d="M 1.6394156,39.797679 C 11.435141,43.208913 26.766008,54.040291 33.866657,33.650005 19.758474,17.305521 9.491493,33.019949 1.6394156,39.797679 Z"
           inkscape:transform-center-y="2.4480573"
           inkscape:transform-center-x="16.113621" /><path
           id="path497"
           style="fill:#f9f9f9;fill-opacity:0.01;stroke:none;stroke-width:1.05833;stroke-dasharray:none;stroke-opacity:1"
           d="M 1.1230292,31.589949 C 9.7626645,37.330111 21.91823,51.633833 33.866657,33.650005 24.266416,14.310451 10.413972,26.977887 1.1230292,31.589949 Z"
           inkscape:transform-center-y="-0.81697546"
           inkscape:transform-center-x="16.371814" /><path
           id="path498"
           style="fill:#f9f9f9;fill-opacity:0.01;stroke:none;stroke-width:1.05833;stroke-dasharray:none;stroke-opacity:1"
           d="M 2.6640455,23.51166 C 9.6047305,31.220075 17.821216,48.097385 33.866657,33.650005 29.377577,12.530556 12.810069,21.355058 2.6640455,23.51166 Z"
           inkscape:transform-center-y="-4.0736805"
           inkscape:transform-center-x="15.601306" /><path
           id="path499"
           style="fill:#f9f9f9;fill-opacity:0.01;stroke:none;stroke-width:1.05833;stroke-dasharray:none;stroke-opacity:1"
           d="M 6.1656367,16.070401 C 10.971262,25.26272 14.732396,43.653155 33.866657,33.650005 34.770803,12.077673 16.529229,16.504766 6.1656367,16.070401 Z"
           inkscape:transform-center-y="-7.3940539"
           inkscape:transform-center-x="13.834316" /><path
           id="path500"
           style="fill:#f9f9f9;fill-opacity:0.01;stroke:none;stroke-width:1.05833;stroke-dasharray:none;stroke-opacity:1"
           d="M 11.407785,9.733733 C 13.776396,19.832369 12.845852,38.58039 33.866657,33.650005 40.107218,12.980259 21.337764,12.731772 11.407785,9.733733 Z"
           inkscape:transform-center-y="-11.552636"
           inkscape:transform-center-x="10.607591" /><path
           id="path501"
           style="fill:#f9f9f9;fill-opacity:0.01;stroke:none;stroke-width:1.05833;stroke-dasharray:none;stroke-opacity:1"
           d="M 18.061107,4.8998123 C 17.843875,15.270231 12.280122,33.197831 33.866657,33.650005 45.051516,15.181601 26.933535,10.273148 18.061107,4.8998123 Z"
           inkscape:transform-center-y="-14.375096"
           inkscape:transform-center-x="6.5333266" /><path
           id="path502"
           style="fill:#f9f9f9;fill-opacity:0.01;stroke:none;stroke-width:1.05833;stroke-dasharray:none;stroke-opacity:1"
           d="M 25.707549,1.872372 C 22.918124,11.862962 13.070754,27.843684 33.866657,33.650005 49.293028,18.543381 32.96494,9.2833776 25.707549,1.872372 Z"
           inkscape:transform-center-y="-15.888816"
           inkscape:transform-center-x="3.2613883" /></g><g
         id="g511"
         inkscape:label="Layer 2"
         style="display:inline"><path
           id="path503"
           style="fill:#000000;fill-opacity:0.5;stroke-width:4.61367"
           d="m 65.577912,42.255621 a 32.808332,32.856128 0 0 0 0.14683,-0.759907 32.808332,32.856128 0 0 0 0.444016,-2.294862 32.808332,32.856128 0 0 0 0.336175,-2.316015 32.808332,32.856128 0 0 0 0.113235,-2.331205 32.808332,32.856128 0 0 0 0.0039,-2.34496 A 32.808332,32.856128 0 0 0 66.40334,29.882336 32.808332,32.856128 0 0 0 66.075602,27.568269 32.808332,32.856128 0 0 0 65.526538,25.289267 32.808332,32.856128 0 0 0 64.874206,23.047443 32.808332,32.856128 0 0 0 64.010825,20.877704 32.808332,32.856128 0 0 0 63.042662,18.743171 32.808332,32.856128 0 0 0 61.881586,16.721407 32.808332,32.856128 0 0 0 60.620167,14.745378 32.808332,32.856128 0 0 0 59.181934,12.907196 32.808332,32.856128 0 0 0 57.655296,11.134047 32.808332,32.856128 0 0 0 57.15145,10.549366 32.808332,32.856128 0 0 0 55.971166,9.5194987 32.808332,32.856128 0 0 0 54.20623,7.9803276 32.808332,32.856128 0 0 0 52.312665,6.623595 32.808332,32.856128 0 0 0 50.34377,5.3488977 32.808332,32.856128 0 0 0 48.276762,4.2762464 32.808332,32.856128 0 0 0 46.15221,3.2966293 32.808332,32.856128 0 0 0 43.946306,2.5261505 32.808332,32.856128 0 0 0 42.465118,2.0087939 32.808332,32.856128 0 0 0 41.706707,1.8602989 32.808332,32.856128 0 0 0 39.415606,1.412115 32.808332,32.856128 0 0 0 37.103868,1.0720593 32.808332,32.856128 0 0 0 34.775158,0.954268 32.808332,32.856128 0 0 0 32.437674,0.946757 32.808332,32.856128 0 0 0 30.107859,1.1624036 32.808332,32.856128 0 0 0 27.799161,1.4870057 32.808332,32.856128 0 0 0 25.525739,2.032318 32.808332,32.856128 0 0 0 23.284308,2.6827542 32.808332,32.856128 0 0 0 21.113764,3.5447722 32.808332,32.856128 0 0 0 18.985471,4.508439 32.808332,32.856128 0 0 0 16.957033,5.672256 32.808332,32.856128 0 0 0 14.989725,6.9272186 32.808332,32.856128 0 0 0 13.143344,8.3713784 32.808332,32.856128 0 0 0 11.379753,9.8896561 32.808332,32.856128 0 0 0 10.791276,10.396104 l 0.05218,0.05292 a 32.808332,32.856128 0 0 0 -0.147329,0.153546 l -0.05565,-0.05542 A 32.808332,32.856128 0 0 0 9.68336,11.658487 32.808332,32.856128 0 0 0 8.1616172,13.425401 32.808332,32.856128 0 0 0 6.7970139,15.329461 32.808332,32.856128 0 0 0 5.5412684,17.295426 32.808332,32.856128 0 0 0 4.4604275,19.374767 32.808332,32.856128 0 0 0 3.4969761,21.499622 32.808332,32.856128 0 0 0 2.7231023,23.710123 32.808332,32.856128 0 0 0 2.2399339,25.08981 l 0.07531,0.02073 a 32.808332,32.856128 0 0 0 -0.059543,0.20513 l -0.071568,-0.0192 a 32.808332,32.856128 0 0 0 -0.3503504,1.468268 32.808332,32.856128 0 0 0 -0.012642,0.05112 32.808332,32.856128 0 0 0 -0.6435706,4.538024 32.808332,32.856128 0 0 0 -0.011146,0.128842 32.808332,32.856128 0 0 0 0.00705,4.517972 32.808332,32.856128 0 0 0 0.011897,0.195751 32.808332,32.856128 0 0 0 0.6411179,4.420301 32.808332,32.856128 0 0 0 0.049571,0.237003 32.808332,32.856128 0 0 0 1.2525715,4.252197 32.808332,32.856128 0 0 0 0.092798,0.251718 32.808332,32.856128 0 0 0 1.8362743,4.015404 32.808332,32.856128 0 0 0 0.1335754,0.244513 32.808332,32.856128 0 0 0 2.3869732,3.712141 32.808332,32.856128 0 0 0 0.164525,0.218024 32.808332,32.856128 0 0 0 2.9001138,3.345857 32.808332,32.856128 0 0 0 0.07052,0.0812 32.808332,32.856128 0 0 0 0.395614,0.377092 32.808332,32.856128 0 0 0 0.581245,0.553028 32.808332,32.856128 0 0 0 0.603481,0.537716 32.808332,32.856128 0 0 0 0.6094,0.52529 32.808332,32.856128 0 0 0 0.613078,0.494097 32.808332,32.856128 0 0 0 0.655044,0.511588 32.808332,32.856128 0 0 0 0.629828,0.458626 32.808332,32.856128 0 0 0 0.669799,0.471943 32.808332,32.856128 0 0 0 0.678634,0.444729 32.808332,32.856128 0 0 0 0.670951,0.425024 32.808332,32.856128 0 0 0 0.700942,0.411754 32.808332,32.856128 0 0 0 0.692601,0.392477 32.808332,32.856128 0 0 0 0.720923,0.377711 32.808332,32.856128 0 0 0 0.711176,0.357967 32.808332,32.856128 0 0 0 0.736125,0.340269 32.808332,32.856128 0 0 0 0.731049,0.324371 32.808332,32.856128 0 0 0 0.738402,0.298833 32.808332,32.856128 0 0 0 0.764331,0.294897 32.808332,32.856128 0 0 0 0.734389,0.255716 32.808332,32.856128 0 0 0 0.792813,0.262052 32.808332,32.856128 0 0 0 0.748105,0.219949 32.808332,32.856128 0 0 0 0.53628,0.157404 32.808332,32.856128 0 0 0 0.106523,0.0203 32.808332,32.856128 0 0 0 4.34751,0.835987 32.808332,32.856128 0 0 0 0.263812,0.03289 32.808332,32.856128 0 0 0 4.405662,0.207993 32.808332,32.856128 0 0 0 0.281239,-0.007 32.808332,32.856128 0 0 0 4.388067,-0.421639 32.808332,32.856128 0 0 0 0.264643,-0.04576 32.808332,32.856128 0 0 0 4.305663,-1.0474 32.808332,32.856128 0 0 0 0.222854,-0.07358 32.808332,32.856128 0 0 0 4.141242,-1.660882 32.808332,32.856128 0 0 0 0.180274,-0.09073 32.808332,32.856128 0 0 0 3.902548,-2.25642 32.808332,32.856128 0 0 0 0.107286,-0.07553 32.808332,32.856128 0 0 0 3.599918,-2.83382 32.808332,32.856128 0 0 0 0.03331,-0.03154 32.808332,32.856128 0 0 0 1.095856,-1.042963 32.808332,32.856128 0 0 0 1.030829,-1.189157 32.808332,32.856128 0 0 0 1.527734,-1.762188 32.808332,32.856128 0 0 0 1.35774,-1.907462 32.808332,32.856128 0 0 0 1.262998,-1.964024 32.808332,32.856128 0 0 0 1.073106,-2.081417 32.808332,32.856128 0 0 0 0.971187,-2.122779 32.808332,32.856128 0 0 0 0.765973,-2.210026 32.808332,32.856128 0 0 0 0.514315,-1.484476 z"
           inkscape:label="circle" /><path
           id="path504"
           style="fill:#f9f9f9;fill-opacity:0.4;stroke:none;stroke-width:1.05833;stroke-dasharray:none;stroke-opacity:1"
           inkscape:transform-center-y="-16.404184"
           d="M 37.978676,1.1879441 C 36.821109,2.712982 35.36357,4.3407661 33.866451,6.0610323 32.369339,4.3407734 30.912237,2.7126615 29.754675,1.1876289 29.012727,2.9526521 28.00604,4.8916483 26.983755,6.9302149 25.105881,5.6363282 23.289379,4.4223466 21.788935,3.2331083 21.509235,5.1272125 21.016247,7.2555219 20.533046,9.484298 18.392557,8.6981355 16.331152,7.9735957 14.58222,7.194921 c 0.200121,1.9040239 0.252253,4.087912 0.338496,6.366663 -2.268957,-0.229173 -4.445608,-0.417773 -6.3333997,-0.737067 0.667405,1.794599 1.2605347,3.897565 1.9108397,6.08349 -2.2544914,0.342272 -4.4097264,0.700173 -6.3174791,0.860372 1.092708,1.572201 2.1904956,3.461006 3.3639533,5.416477 -2.0986875,0.892247 -4.0971515,1.775103 -5.9052427,2.404747 1.449417,1.251104 2.9827781,2.807979 4.6057353,4.410245 -1.8109214,1.386181 -3.5275158,2.737957 -5.1222645,3.797505 1.7148665,0.851267 3.5868285,1.977948 5.5570736,3.126157 -1.4092345,1.792912 -2.7348958,3.529638 -4.0159914,4.952439 1.8727274,0.39806 3.9662995,1.023823 6.1602387,1.64599 -0.9190803,2.087043 -1.771297,4.098664 -2.658307,5.795357 1.9130772,-0.08018 4.0960238,0.0047 6.3760108,0.06167 -0.37122,2.250259 -0.696648,4.410788 -1.13388,6.274937 1.832812,-0.553359 3.968296,-1.013699 6.19054,-1.525414 0.20004,2.271582 0.422311,4.444792 0.462406,6.358877 1.637642,-0.991791 3.59221,-1.968363 5.617415,-3.01667 0.758707,2.150568 1.514472,4.200232 2.029342,6.04429 1.339486,-1.367838 2.989368,-2.799846 4.690165,-4.318793 1.269616,1.894198 2.511539,3.691525 3.468775,5.349506 0.957293,-1.658079 2.199045,-3.455399 3.46874,-5.34972 1.700876,1.519021 3.350663,2.950928 4.690206,4.318826 0.514849,-1.84398 1.271104,-3.893573 2.029779,-6.044042 2.02517,1.048288 3.979083,2.02524 5.616698,3.017015 0.0401,-1.914318 0.262198,-4.087899 0.462257,-6.359782 2.222534,0.511789 4.358,0.972488 6.191034,1.525913 -0.437192,-1.863979 -0.762365,-4.024339 -1.133544,-6.274379 2.279738,-0.05701 4.463158,-0.142463 6.376044,-0.06229 -0.887013,-1.696699 -1.739629,-3.708599 -2.658714,-5.795649 2.194064,-0.6222 4.28762,-1.247809 6.160445,-1.645891 -1.281148,-1.422859 -2.607639,-3.159065 -4.016938,-4.952055 1.970436,-1.148313 3.842804,-2.274947 5.557821,-3.126289 -1.5947,-1.059516 -3.310822,-2.411634 -5.121683,-3.797771 1.622897,-1.60221 3.155924,-3.158666 4.605292,-4.409728 -1.807977,-0.629604 -3.806495,-1.512246 -5.905037,-2.404435 1.173491,-1.955525 2.270973,-3.844919 3.363708,-5.41716 -1.907888,-0.160205 -4.063061,-0.518827 -6.317725,-0.861141 0.650237,-2.185712 1.243841,-4.288026 1.911186,-6.082462 -1.887634,0.319269 -4.064462,0.508396 -6.333214,0.737542 0.08625,-2.278922 0.13804,-4.4629693 0.338175,-6.3671243 C 51.402118,7.973811 49.340782,8.6979082 47.200127,9.4841365 46.716931,7.2553838 46.224078,5.1269507 45.944384,3.2328648 44.443928,4.4221112 42.627709,5.6367069 40.74982,6.930604 39.727549,4.892065 38.720614,2.9529453 37.978676,1.1879441 Z" /><path
           id="path505"
           style="fill:#f9f9f9;fill-opacity:0.4;stroke:none;stroke-width:1.05833;stroke-dasharray:none;stroke-opacity:1"
           inkscape:transform-center-y="-0.095468925"
           d="m 36.902585,9.7060644 c -0.854634,1.1259396 -1.930739,2.3277366 -3.036066,3.5978126 -1.105322,-1.270071 -2.181104,-2.47211 -3.035735,-3.5980453 -0.547781,1.3031213 -1.291022,2.7346873 -2.045777,4.2397663 -1.386439,-0.95528 -2.727567,-1.851566 -3.835349,-2.729584 -0.206497,1.398423 -0.570477,2.969758 -0.927225,4.61527 -1.580329,-0.580427 -3.102269,-1.115355 -4.39351,-1.690254 0.14775,1.405746 0.186239,3.018117 0.249911,4.700524 -1.675175,-0.169199 -3.282203,-0.308443 -4.675964,-0.544174 0.492747,1.324956 0.930655,2.877581 1.410778,4.491455 -1.664497,0.2527 -3.255713,0.51694 -4.664211,0.635216 0.806749,1.160759 1.617248,2.555269 2.483615,3.998998 -1.549466,0.658747 -3.024937,1.310562 -4.359855,1.77543 1.070108,0.923694 2.202192,2.073139 3.400425,3.256096 -1.337008,1.023421 -2.604373,2.02144 -3.7817806,2.803706 1.2660906,0.628493 2.6481656,1.460325 4.1028016,2.30805 -1.040441,1.323712 -2.01918,2.605942 -2.965016,3.656399 1.382639,0.293888 2.928328,0.755891 4.548119,1.215238 -0.678559,1.540869 -1.307753,3.026055 -1.962634,4.278727 1.412429,-0.0592 3.024105,0.0034 4.707425,0.04553 -0.274076,1.661372 -0.514338,3.256496 -0.837147,4.632801 1.353169,-0.408546 2.929803,-0.748416 4.570491,-1.126217 0.14769,1.677116 0.311794,3.281602 0.341396,4.694776 1.209076,-0.732242 2.652138,-1.453247 4.147351,-2.227216 0.560155,1.587771 1.118139,3.101043 1.498269,4.462515 0.988945,-1.009878 2.207058,-2.067133 3.46276,-3.188576 0.937361,1.398491 1.854277,2.725463 2.561005,3.949555 0.706773,-1.224165 1.623561,-2.55113 2.56098,-3.949713 1.25576,1.121498 2.473802,2.178678 3.462791,3.188601 0.380114,-1.361416 0.938459,-2.874635 1.498591,-4.462332 1.495188,0.773954 2.937767,1.495239 4.146822,2.22747 0.02961,-1.413346 0.193582,-3.018107 0.341285,-4.695444 1.640904,0.377856 3.217523,0.717992 4.570856,1.126586 -0.32278,-1.37618 -0.562856,-2.971179 -0.836898,-4.63239 1.683137,-0.04209 3.295162,-0.105181 4.707449,-0.04599 -0.654884,-1.252677 -1.284372,-2.738068 -1.962935,-4.278943 1.619883,-0.459371 3.165561,-0.921261 4.548273,-1.215166 -0.945875,-1.0505 -1.925227,-2.332345 -2.965716,-3.656113 1.454778,-0.847803 2.837151,-1.6796 4.103353,-2.308148 -1.17737,-0.782244 -2.444388,-1.780516 -3.781351,-2.803904 1.198189,-1.182915 2.330026,-2.332051 3.400098,-3.255712 -1.334833,-0.46484 -2.810344,-1.116496 -4.359704,-1.775201 0.866391,-1.443769 1.676666,-2.838713 2.483436,-3.999503 -1.408598,-0.118286 -2.999764,-0.38309 -4.664393,-0.635786 0.480072,-1.613717 0.918331,-3.165861 1.411034,-4.490698 -1.393645,0.235718 -3.000802,0.37535 -4.675828,0.54453 0.06368,-1.682535 0.101915,-3.295022 0.249675,-4.700864 -1.291334,0.574938 -2.813223,1.109541 -4.393674,1.690016 -0.356745,-1.645494 -0.72062,-3.216921 -0.927119,-4.615331 -1.10779,0.878024 -2.448708,1.774763 -3.835159,2.73005 C 38.193782,12.440826 37.45036,11.00917 36.902585,9.7060644 Z"
           inkscape:transform-center-x="-6.5568851e-06" /><path
           id="path506"
           style="fill:#f9f9f9;fill-opacity:0.4;stroke:none;stroke-width:1.05833;stroke-dasharray:none;stroke-opacity:1"
           inkscape:transform-center-y="-0.074471625"
           d="m 36.234977,14.990734 c -0.666695,0.878338 -1.506157,1.815851 -2.368414,2.806628 -0.862255,-0.990773 -1.701465,-1.928477 -2.368155,-2.80681 -0.427321,1.016556 -1.007118,2.13331 -1.595897,3.307412 -1.081552,-0.745208 -2.127755,-1.444394 -2.991928,-2.12933 -0.161087,1.090901 -0.445027,2.316687 -0.723323,3.600341 -1.232804,-0.452788 -2.420058,-0.870082 -3.427346,-1.318556 0.115259,1.096612 0.145283,2.354411 0.194953,3.666845 -1.306791,-0.131995 -2.560422,-0.240613 -3.647687,-0.424503 0.384389,1.033589 0.725998,2.244781 1.100538,3.503753 -1.298462,0.19713 -2.539759,0.403261 -3.638518,0.495527 0.629339,0.905501 1.261604,1.993348 1.937451,3.119591 -1.208728,0.513884 -2.359733,1.02236 -3.401093,1.385 0.834784,0.720567 1.717915,1.617241 2.652648,2.540058 -1.04299,0.798363 -2.031653,1.576911 -2.95014,2.187152 0.987668,0.490282 2.065815,1.139188 3.200566,1.800492 -0.81164,1.03262 -1.575147,2.032878 -2.312988,2.852332 1.078587,0.22926 2.284368,0.589666 3.547956,0.947999 -0.529339,1.20202 -1.020169,2.360604 -1.531037,3.337804 1.101826,-0.04618 2.359083,0.0027 3.672229,0.03552 -0.213801,1.296025 -0.401236,2.540368 -0.653053,3.614016 1.055599,-0.318703 2.285519,-0.583834 3.565409,-0.878554 0.115211,1.308306 0.243228,2.559955 0.26632,3.662362 0.943192,-0.571217 2.068914,-1.133668 3.235319,-1.737436 0.436974,1.238609 0.872253,2.419102 1.168789,3.481176 0.77147,-0.787798 1.721711,-1.612555 2.701277,-2.487385 0.731227,1.090953 1.446507,2.126115 1.997821,3.08102 0.551348,-0.954962 1.266528,-1.990118 1.997803,-3.081143 0.979609,0.874872 1.929795,1.699571 2.701298,2.487405 0.296525,-1.06203 0.732086,-2.242483 1.169041,-3.481034 1.166386,0.603757 2.291731,1.166427 3.234907,1.737634 0.02309,-1.102542 0.151011,-2.354404 0.266233,-3.662883 1.280058,0.294762 2.509967,0.5601 3.565693,0.878842 -0.251798,-1.073548 -0.439079,-2.317797 -0.652858,-3.613695 1.313004,-0.03283 2.570532,-0.08205 3.672248,-0.03587 -0.51087,-0.977205 -1.001929,-2.135948 -1.531272,-3.337974 1.263659,-0.358352 2.469432,-0.718668 3.548075,-0.947942 -0.73787,-0.819488 -1.501856,-1.819446 -2.313533,-2.852108 1.134862,-0.661366 2.213241,-1.310244 3.200997,-1.800571 -0.918459,-0.610222 -1.90685,-1.388967 -2.949807,-2.187305 0.9347,-0.922783 1.817638,-1.819216 2.652394,-2.539759 -1.041295,-0.362617 -2.192331,-0.87097 -3.400974,-1.384821 0.675865,-1.126274 1.307954,-2.21446 1.93731,-3.119984 -1.098837,-0.09228 -2.340094,-0.298848 -3.63866,-0.495976 0.374501,-1.258849 0.716384,-2.469665 1.100738,-3.503161 -1.087173,0.183882 -2.340905,0.292807 -3.647581,0.424784 0.04968,-1.312535 0.0795,-2.570424 0.194771,-3.667112 -1.007362,0.448506 -2.194577,0.865546 -3.427475,1.31837 -0.278294,-1.283637 -0.562151,-2.509497 -0.72324,-3.600387 -0.864178,0.68494 -1.91022,1.384481 -2.99178,2.129693 -0.588772,-1.174085 -1.168711,-2.29091 -1.596025,-3.307453 z"
           inkscape:transform-center-x="-6.8068851e-06" /><path
           id="path507"
           style="fill:#f9f9f9;fill-opacity:0.4;stroke:none;stroke-width:1.05833;stroke-dasharray:none;stroke-opacity:1"
           inkscape:transform-center-y="-0.052357625"
           d="m 35.531669,20.557968 c -0.468706,0.617497 -1.058871,1.276596 -1.665063,1.97314 -0.606189,-0.696542 -1.196178,-1.355774 -1.664881,-1.973268 -0.300418,0.714668 -0.708032,1.499779 -1.12196,2.325205 -0.760362,-0.523901 -1.495873,-1.015449 -2.103412,-1.496979 -0.113245,0.766935 -0.312866,1.628697 -0.508516,2.531142 -0.866697,-0.318322 -1.70137,-0.611692 -2.409522,-0.926982 0.08103,0.77095 0.102139,1.655218 0.137058,2.577897 -0.918712,-0.0928 -1.800051,-0.16916 -2.564429,-0.298441 0.270236,0.726643 0.510397,1.578145 0.77371,2.463238 -0.912856,0.138589 -1.785523,0.283505 -2.557982,0.34837 0.442444,0.636593 0.886944,1.401381 1.362084,2.193162 -0.849771,0.361275 -1.65896,0.718749 -2.391066,0.973695 0.586877,0.506578 1.207743,1.136966 1.864888,1.785733 -0.733253,0.561272 -1.428311,1.108613 -2.074034,1.53763 0.694359,0.344683 1.452328,0.800882 2.250089,1.265798 -0.570605,0.72596 -1.107372,1.429171 -1.626096,2.00527 0.758277,0.161178 1.605976,0.414552 2.494314,0.666471 -0.372139,0.845055 -0.717207,1.659572 -1.076362,2.346572 0.774615,-0.03247 1.658503,0.0019 2.581682,0.02497 -0.150312,0.911142 -0.282083,1.785951 -0.459114,2.540757 0.742115,-0.224058 1.606784,-0.410453 2.506583,-0.617649 0.081,0.919776 0.170997,1.799722 0.187231,2.574745 0.663091,-0.401582 1.454506,-0.797001 2.274522,-1.221467 0.307205,0.870778 0.613218,1.700697 0.821692,2.447366 0.542365,-0.553844 1.210412,-1.133673 1.899074,-1.748703 0.514074,0.766971 1.016937,1.49472 1.404526,2.166045 0.387613,-0.671365 0.890405,-1.39911 1.404512,-2.166131 0.688693,0.61506 1.356702,1.194847 1.89909,1.748716 0.208466,-0.746636 0.514677,-1.576529 0.82187,-2.447266 0.820002,0.424458 1.611152,0.820032 2.274232,1.221607 0.01624,-0.775119 0.106164,-1.655214 0.187169,-2.575112 0.899917,0.207224 1.764578,0.393766 2.506783,0.617851 -0.17702,-0.754735 -0.308684,-1.629477 -0.458977,-2.540531 0.923079,-0.02308 1.807158,-0.05768 2.581696,-0.02522 -0.359157,-0.687003 -0.704385,-1.501632 -1.076529,-2.346691 0.888389,-0.251931 1.736082,-0.505245 2.494398,-0.666431 -0.518744,-0.576123 -1.055847,-1.279122 -1.62648,-2.005112 0.797841,-0.46496 1.555973,-0.92114 2.250393,-1.265853 -0.645703,-0.429004 -1.34057,-0.976484 -2.073798,-1.537738 0.657121,-0.648744 1.27785,-1.278961 1.864708,-1.785524 -0.73206,-0.25493 -1.541271,-0.612317 -2.390982,-0.973569 0.475152,-0.791803 0.919529,-1.556828 1.361984,-2.193437 -0.772513,-0.06487 -1.645147,-0.210149 -2.558081,-0.348682 0.263283,-0.885008 0.503638,-1.736246 0.773849,-2.462823 -0.764313,0.129274 -1.645723,0.205852 -2.564352,0.298635 0.03493,-0.922749 0.05589,-1.807081 0.136929,-2.578084 -0.708205,0.315312 -1.542851,0.608503 -2.409614,0.926851 -0.195648,-0.902433 -0.395207,-1.764248 -0.508458,-2.531174 -0.607542,0.481532 -1.342939,0.973329 -2.103306,1.497235 -0.413924,-0.825415 -0.821638,-1.610576 -1.122052,-2.325234 z"
           inkscape:transform-center-x="-4.3068851e-06" /><path
           id="path508"
           style="fill:#f9f9f9;fill-opacity:0.4;stroke:none;stroke-width:1.05833;stroke-dasharray:none;stroke-opacity:1"
           inkscape:transform-center-y="0.10901418"
           d="M 40.749637,6.9302375 C 39.61958,8.0842125 38.227603,9.2924638 36.792721,10.573932 35.721612,8.9758895 34.674246,7.4591989 33.866678,6.0604497 33.059096,7.4592212 32.011551,8.9756068 30.940423,10.573677 29.505557,9.2922248 28.11361,8.0841368 26.983567,6.9301742 26.549211,8.4858522 25.911584,10.214995 25.271525,12.029257 23.563186,11.144972 21.91452,10.320624 20.533099,9.4840054 c -0.03382,1.6147126 -0.221094,3.4480056 -0.389847,5.3643016 -1.874749,-0.431701 -3.676534,-0.819685 -5.222742,-1.286512 0.368834,1.572536 0.642902,3.395304 0.956049,5.293547 -1.92306,0.04809 -3.764703,0.119763 -5.378315,0.05213 0.748302,1.43137 1.46738,3.128254 2.242741,4.888936 -1.850811,0.524862 -3.6167494,1.052462 -5.1965846,1.388266 1.0807951,1.200345 2.1995171,2.665478 3.3884266,4.178073 -1.6621927,0.96868 -3.2418018,1.91854 -4.6885362,2.636705 1.3452352,0.893771 2.79283,2.034659 4.3204062,3.203954 -1.369009,1.351561 -2.6621316,2.664934 -3.8847638,3.720281 1.5252725,0.531156 3.2113036,1.276235 4.9817168,2.028917 -0.989878,1.649554 -1.9158204,3.243055 -2.8375855,4.569301 1.6096065,0.135163 3.4276225,0.437041 5.3298155,0.725745 -0.548609,1.844083 -1.049405,3.617906 -1.612438,5.131858 1.592459,-0.269344 3.428401,-0.428836 5.34239,-0.622153 -0.07275,1.922327 -0.1165,3.764673 -0.28532,5.370887 1.47547,-0.656923 3.214578,-1.267597 5.02039,-1.930842 0.407613,1.880113 0.823431,3.675466 1.059374,5.273267 1.26569,-1.003173 2.797947,-2.027234 4.38201,-3.118676 0.862318,1.719565 1.711701,3.355128 2.337551,4.843967 0.976505,-1.286498 2.205808,-2.659456 3.468753,-4.110643 1.262923,1.451163 2.4923,2.824014 3.468789,4.110492 0.625861,-1.488865 1.475504,-3.124291 2.337839,-4.843888 1.584109,1.091475 3.116123,2.115712 4.381847,3.118912 0.235965,-1.597928 0.651658,-3.393602 1.059302,-5.273879 1.806015,0.663325 3.544561,1.274687 5.020186,1.931676 -0.168825,-1.606262 -0.21256,-3.448733 -0.285318,-5.371126 1.91403,0.193326 3.750457,0.352657 5.34295,0.622004 -0.562985,-1.513819 -1.063854,-3.287803 -1.612408,-5.131714 1.902083,-0.288765 3.72041,-0.591011 5.32994,-0.726168 -0.921805,-1.326302 -1.848429,-2.919652 -2.838354,-4.56928 1.770547,-0.752735 3.456726,-1.497694 4.982103,-2.028886 -1.222645,-1.05536 -2.515975,-2.368446 -3.885,-3.720021 1.527669,-1.169364 2.975283,-2.309937 4.320591,-3.203759 -1.446599,-0.718098 -3.025915,-1.668119 -4.687938,-2.636706 1.188899,-1.512582 2.307191,-2.977854 3.387978,-4.17819 -1.579849,-0.335802 -3.345681,-0.863815 -5.196506,-1.388697 0.775304,-1.760558 1.494392,-3.457306 2.242646,-4.888583 -1.613592,0.06763 -3.455461,-0.0042 -5.378498,-0.05233 0.313137,-1.898201 0.587402,-3.720641 0.956229,-5.293143 -1.546192,0.466825 -3.347964,0.854905 -5.222691,1.2866 C 47.421516,12.932214 47.234068,11.098735 47.200243,9.4839271 45.818712,10.320611 44.170228,11.145125 42.461744,12.02949 41.8217,10.215271 41.18398,8.4858819 40.749637,6.9302375 Z"
           inkscape:transform-center-x="3.7793104e-05" /><path
           id="path509"
           style="fill:#f9f9f9;fill-opacity:0.4;stroke:none;stroke-width:1.05833;stroke-dasharray:none;stroke-opacity:1"
           inkscape:transform-center-y="0.080488376"
           d="m 38.948392,13.945614 c -0.834322,0.851984 -1.862024,1.744038 -2.921399,2.690148 -0.790804,-1.179838 -1.564077,-2.299615 -2.160305,-3.332314 -0.596241,1.032716 -1.369647,2.152268 -2.160464,3.332128 -1.059364,-0.9461 -2.087043,-1.838036 -2.921356,-2.690008 -0.320681,1.148562 -0.791448,2.425191 -1.264004,3.764665 -1.261272,-0.65287 -2.478485,-1.261488 -3.498392,-1.879167 -0.02497,1.192147 -0.163234,2.545673 -0.287826,3.960479 -1.384131,-0.318726 -2.714393,-0.605176 -3.855964,-0.949832 0.272312,1.161007 0.474656,2.506761 0.705854,3.908239 -1.419801,0.03551 -2.77949,0.08842 -3.970823,0.03849 0.552472,1.056784 1.083369,2.309597 1.65582,3.609514 -1.366458,0.387506 -2.670255,0.777034 -3.83665,1.024959 0.797953,0.886219 1.623908,1.96793 2.501683,3.084683 -1.227201,0.715179 -2.393431,1.416463 -3.461559,1.946685 0.993191,0.659874 2.061955,1.502193 3.189767,2.365487 -1.010742,0.997861 -1.965457,1.967527 -2.868131,2.746693 1.126113,0.392154 2.370914,0.942249 3.678014,1.497955 -0.730829,1.21787 -1.414454,2.394355 -2.094995,3.373525 1.188376,0.09979 2.530629,0.322616 3.935015,0.535824 -0.405042,1.36149 -0.774779,2.671109 -1.190468,3.788863 1.175718,-0.198859 2.531198,-0.316612 3.944301,-0.459337 -0.05372,1.41926 -0.08601,2.779468 -0.210651,3.965339 1.089343,-0.485007 2.373331,-0.93587 3.706565,-1.425546 0.300941,1.388093 0.607941,2.713606 0.782139,3.893267 0.934461,-0.740646 2.065732,-1.496713 3.235249,-2.302526 0.636651,1.269559 1.263754,2.477099 1.72582,3.576313 0.720956,-0.949825 1.628553,-1.963482 2.560988,-3.034899 0.93242,1.071398 1.840071,2.084977 2.561016,3.034787 0.462075,-1.099232 1.089369,-2.306672 1.726032,-3.576255 1.169552,0.805838 2.300642,1.562035 3.235129,2.302701 0.174216,-1.179755 0.481121,-2.505505 0.782084,-3.893718 1.333387,0.489734 2.616959,0.941104 3.706417,1.42616 -0.124644,-1.185906 -0.156933,-2.546208 -0.21065,-3.965516 1.413135,0.142728 2.768972,0.260367 3.944713,0.459225 -0.415653,-1.117657 -0.785446,-2.427394 -1.190444,-3.788759 1.404313,-0.213195 2.746787,-0.436344 3.935108,-0.53613 -0.68057,-0.979213 -1.364699,-2.155586 -2.095563,-3.373511 1.307198,-0.555747 2.552107,-1.105752 3.678298,-1.497933 -0.902681,-0.779174 -1.857551,-1.748629 -2.868305,-2.746501 1.127881,-0.863344 2.196658,-1.705431 3.189903,-2.365341 -1.068028,-0.530172 -2.234041,-1.231574 -3.461117,-1.946686 0.877767,-1.116743 1.703405,-2.198557 2.501353,-3.084767 -1.166404,-0.247934 -2.470116,-0.637789 -3.836593,-1.025281 0.572409,-1.299826 1.103314,-2.552539 1.655752,-3.609255 -1.191319,0.04993 -2.551176,-0.0031 -3.970959,-0.03864 0.231191,-1.401447 0.433685,-2.746958 0.705986,-3.90794 -1.141556,0.344655 -2.47181,0.631177 -3.855924,0.949897 -0.124597,-1.414897 -0.262991,-2.768559 -0.287965,-3.960776 -1.019986,0.617726 -2.237066,1.226467 -3.498444,1.879394 -0.472547,-1.339441 -0.943377,-2.616253 -1.264055,-3.76479 z"
           inkscape:transform-center-x="2.8193044e-05" /><path
           id="path510"
           style="fill:#f9f9f9;fill-opacity:0.4;stroke:none;stroke-width:1.05833;stroke-dasharray:none;stroke-opacity:1"
           inkscape:transform-center-y="0.062789876"
           d="m 37.830896,18.297976 c -0.65085,0.664627 -1.452552,1.360512 -2.278964,2.098566 -0.6169,-0.920383 -1.220124,-1.793914 -1.685238,-2.599515 -0.465123,0.805616 -1.068453,1.678969 -1.685363,2.599369 -0.826403,-0.738046 -1.628086,-1.433838 -2.278929,-2.098456 -0.25016,0.895986 -0.617403,1.891874 -0.986041,2.93679 -0.98391,-0.509301 -1.933449,-0.984078 -2.729071,-1.465925 -0.01948,0.929984 -0.127337,1.985861 -0.22453,3.08954 -1.079751,-0.248638 -2.11748,-0.472092 -3.008012,-0.740954 0.212429,0.905694 0.370275,1.955507 0.550632,3.04879 -1.107576,0.0277 -2.168262,0.06898 -3.097612,0.03002 0.430981,0.82439 0.845129,1.801701 1.291695,2.815756 -1.065966,0.302292 -2.083049,0.606159 -2.992945,0.799563 0.622478,0.691333 1.266799,1.53517 1.951545,2.40634 -0.95733,0.557906 -1.867098,1.104972 -2.700337,1.518595 0.774781,0.514764 1.608516,1.17185 2.488314,1.8453 -0.788472,0.778425 -1.533238,1.534855 -2.237408,2.142676 0.878472,0.305917 1.849533,0.735041 2.869193,1.168544 -0.570115,0.950052 -1.103407,1.86782 -1.634292,2.631664 0.927045,0.07784 1.974122,0.251708 3.069679,0.417989 -0.315967,1.062091 -0.604404,2.083713 -0.928677,2.955666 0.91717,-0.155127 1.974571,-0.246985 3.076922,-0.358326 -0.0419,1.107155 -0.0671,2.168245 -0.164328,3.093334 0.84979,-0.378351 1.851419,-0.730066 2.891466,-1.112058 0.234763,1.082842 0.474251,2.116865 0.610141,3.03711 0.728967,-0.577771 1.611463,-1.167575 2.523797,-1.796185 0.496646,0.990374 0.985844,1.932368 1.346299,2.789857 0.562412,-0.740952 1.270422,-1.531699 1.997809,-2.367503 0.727373,0.83579 1.435426,1.626476 1.997829,2.367416 0.360462,-0.857502 0.84981,-1.799418 1.346468,-2.789811 0.912359,0.628629 1.794713,1.218533 2.523701,1.796321 0.135908,-0.920319 0.375318,-1.954528 0.610098,-3.037463 1.040166,0.382039 2.04147,0.734148 2.891349,1.112538 -0.09723,-0.925117 -0.122421,-1.986279 -0.164327,-3.093471 1.102377,0.111342 2.160056,0.203108 3.077243,0.358245 -0.324248,-0.871875 -0.61272,-1.893592 -0.928658,-2.955584 1.095495,-0.166312 2.14275,-0.340388 3.069749,-0.418231 -0.530907,-0.763878 -1.064591,-1.681558 -1.634732,-2.631652 1.019737,-0.433535 1.99088,-0.862589 2.869415,-1.168527 -0.704177,-0.607828 -1.449063,-1.364093 -2.237547,-2.142526 0.879853,-0.673488 1.713599,-1.330394 2.488423,-1.845186 -0.833162,-0.413585 -1.74276,-0.960746 -2.699992,-1.518598 0.684739,-0.871165 1.328813,-1.715079 1.951287,-2.406406 -0.909904,-0.193416 -1.92692,-0.497536 -2.992899,-0.799818 0.446533,-1.013984 0.860688,-1.991217 1.291641,-2.815552 -0.92934,0.03895 -1.990155,-0.0024 -3.097718,-0.03014 0.180354,-1.093259 0.338312,-2.142883 0.550735,-3.048558 -0.890521,0.268864 -1.92824,0.492377 -3.00798,0.74101 -0.0972,-1.103751 -0.205156,-2.159734 -0.224639,-3.089775 -0.795684,0.481884 -1.74512,0.956759 -2.729112,1.466103 -0.36863,-1.044888 -0.735922,-2.04092 -0.986079,-2.936886 z"
           inkscape:transform-center-x="2.0693044e-05" /><path
           id="path511"
           style="fill:#f9f9f9;fill-opacity:0.4;stroke:none;stroke-width:1.05833;stroke-dasharray:none;stroke-opacity:1"
           inkscape:transform-center-y="0.044145376"
           d="m 36.653645,22.883055 c -0.457566,0.46725 -1.021184,0.956478 -1.602177,1.475352 -0.433698,-0.647056 -0.857782,-1.261175 -1.18477,-1.827534 -0.326994,0.56637 -0.751152,1.180363 -1.184857,1.827431 -0.580985,-0.518867 -1.144592,-1.008029 -1.602153,-1.475276 -0.175865,0.629906 -0.434053,1.330042 -0.693215,2.064647 -0.691717,-0.358052 -1.35927,-0.691834 -1.918615,-1.030585 -0.01369,0.653806 -0.08953,1.396116 -0.157852,2.172035 -0.759094,-0.174799 -1.488648,-0.331897 -2.114717,-0.520915 0.149343,0.636728 0.260315,1.374775 0.38711,2.143385 -0.778659,0.01947 -1.52435,0.04849 -2.177708,0.02111 0.30299,0.579571 0.59415,1.266647 0.908098,1.979557 -0.749405,0.212521 -1.464443,0.426148 -2.104127,0.562117 0.43762,0.486026 0.890596,1.079267 1.371992,1.691726 -0.673031,0.392223 -1.312623,0.776827 -1.898414,1.067615 0.544693,0.361892 1.130833,0.823844 1.749356,1.297298 -0.554318,0.547255 -1.07791,1.079047 -1.572962,1.506362 0.617591,0.21507 1.300276,0.516756 2.017125,0.82152 -0.400806,0.667914 -0.775727,1.313131 -1.148954,1.850136 0.651739,0.05473 1.387866,0.176941 2.158071,0.293865 -0.222137,0.746679 -0.424915,1.464909 -0.652885,2.077918 0.644796,-0.10906 1.388178,-0.173639 2.163163,-0.251914 -0.02946,0.778361 -0.04717,1.524338 -0.115528,2.174701 0.597427,-0.265991 1.301601,-0.513255 2.032784,-0.781807 0.165044,0.761268 0.333411,1.488216 0.428946,2.135174 0.512485,-0.406189 1.132905,-0.820838 1.774301,-1.26277 0.349156,0.696262 0.693077,1.358512 0.946487,1.96135 0.395393,-0.520909 0.893143,-1.076827 1.404516,-1.664422 0.511365,0.587585 1.009147,1.14346 1.404533,1.664362 0.253415,-0.602849 0.59744,-1.265043 0.946604,-1.961318 0.641415,0.441944 1.261735,0.856664 1.774235,1.262866 0.09555,-0.647011 0.263859,-1.374089 0.428915,-2.135423 0.731267,0.268581 1.435213,0.516127 2.032701,0.782145 -0.06836,-0.650384 -0.08606,-1.396411 -0.115526,-2.174798 0.775002,0.07828 1.518581,0.142795 2.16339,0.251861 -0.227956,-0.612953 -0.43076,-1.33125 -0.652874,-2.077861 0.770164,-0.116921 1.506415,-0.239303 2.158122,-0.294029 -0.373244,-0.537027 -0.748439,-1.182182 -1.149265,-1.850126 0.716905,-0.304786 1.399648,-0.606424 2.017282,-0.821508 -0.495056,-0.427319 -1.018733,-0.958996 -1.573059,-1.506257 0.618562,-0.473481 1.204709,-0.935305 1.749431,-1.297219 -0.585735,-0.290761 -1.22521,-0.67543 -1.898171,-1.067617 0.48139,-0.612452 0.934193,-1.205748 1.37181,-1.691772 -0.639688,-0.135966 -1.354669,-0.349822 -2.104093,-0.562292 0.313925,-0.712859 0.605088,-1.399881 0.908059,-1.979415 -0.653352,0.02739 -1.399135,-0.0017 -2.177781,-0.02119 0.126799,-0.768591 0.237841,-1.506508 0.387182,-2.143223 -0.626063,0.189019 -1.35561,0.346155 -2.114698,0.52095 -0.06833,-0.775967 -0.14423,-1.518354 -0.157927,-2.1722 -0.559388,0.338779 -1.226869,0.672629 -1.918643,1.030713 -0.259158,-0.734586 -0.517375,-1.434825 -0.693243,-2.064715 z"
           inkscape:transform-center-x="1.4693044e-05" /></g></g><path
       id="path6"
       style="fill:#f9f9f9;fill-opacity:1;stroke:none;stroke-width:1.05833;stroke-opacity:0.501384;filter:url(#filter6)"
       d="m 150.93468,-61.411931 c -0.90231,-0.01094 -1.68949,0.479176 -2.45721,1.0573 -0.57281,0.43135 -1.66735,-1.092035 -2.25826,-0.733805 -0.523,0.317054 -0.53636,2.541969 -1.13223,2.548681 -1.18447,0.01334 -2.07077,-1.764626 -3.2241,-1.494482 -1.11098,0.260232 -1.13489,2.136 -2.14353,2.669604 -0.88082,0.465987 -2.05891,-0.144168 -2.98018,0.235645 -0.95759,0.394782 -1.45343,1.527529 -2.3704,2.009179 -0.63436,0.33321 -1.55966,0.06315 -2.07481,0.561207 -0.7869,0.760798 -0.43808,2.1793 -0.96377,3.139343 -0.44489,0.812482 -0.91485,1.841451 -1.79885,2.118217 -1.01092,0.316499 -2.15553,-1.349735 -3.07113,-0.817005 -0.86167,0.501352 -0.42819,1.952321 -0.76016,2.89233 -0.92075,2.607212 -2.10068,5.125575 -3.39773,7.567497 -0.42488,0.799907 0.11025,0.850119 -0.47594,1.582332 -0.52467,0.655375 -1.5797,1.892473 -1.62005,2.702161 -0.0592,1.187969 1.02509,2.15674 0.95239,3.299023 -0.0464,0.72988 -0.6395,1.319485 -0.87075,2.013314 -0.51724,1.551877 -0.22942,3.415803 -1.1436,4.772319 -0.62872,0.93299 -2.52277,0.858634 -2.74711,1.96112 -0.25422,1.249311 1.67162,2.02958 1.99677,3.262334 0.37934,1.43821 0.72852,3.258957 -0.14934,4.459676 -0.47371,0.64793 -1.82881,0.136099 -2.26911,0.807186 -1.07937,1.645133 0.15109,3.937234 0.39997,5.8890457 0.43557,3.4158804 1.01539,6.8274186 1.90945,10.1528687 0.34239,1.2735109 0.54679,2.6598704 1.31671,3.7305216 0.43548,0.6055806 1.32375,0.7749916 1.7632,1.3776937 0.35367,0.4850565 1.13942,-0.00759 1.31517,0.5705078 0.31089,1.0225478 0.0369,3.1139375 0.40669,4.1093095 1.45515,3.91704 4.652,7.143857 6.17017,8.753471 0.71507,0.758143 -0.12569,2.083938 -0.0873,3.125391 0.0415,1.127168 0.21334,2.245764 0.34313,3.366203 0.57433,4.957898 1.75452,10.236641 -1.91926,14.647168 -1.60108,1.922152 -2.99426,4.032138 -4.21783,6.217191 -0.42711,0.76274 -0.69163,1.655866 -1.90789,1.714108 -0.89301,0.04276 -1.60228,0.935573 -2.08308,1.689302 -0.37187,0.582959 -0.6606,1.115261 -1.9358,0.73794 -1.20773,-0.357359 -2.23037,1.246254 -3.10627,2.151289 -0.31483,0.325303 -0.4253,0.812135 -0.73639,1.141016 -0.40993,0.433372 -0.90487,0.80425 -1.44746,1.052132 -0.60062,0.274407 -1.27827,0.34014 -1.92959,0.449068 -4.23898,0.708955 -8.544,0.944976 -12.825066,1.324467 -2.629841,0.233123 -5.364869,-0.154802 -7.89926,0.584978 -1.90797,0.556926 -3.738406,1.523954 -5.249292,2.827734 -2.684749,2.316739 -6.298832,3.578379 -8.764839,6.192904 -3.09152,3.277703 -4.401482,8.550294 -5.917985,12.904122 -2.343165,6.727127 -2.99795,13.984422 -3.421497,21.095354 -0.436167,7.32279 2.40212,16.09636 1.518254,20.19773 -1.478064,6.85865 -5.487285,13.43133 -7.262606,20.74551 -2.056345,8.47193 -1.325237,17.50104 -9.285222,24.64294 -2.646983,2.3749 -5.797075,3.92291 -8.66252,6.03529 -2.669932,1.96821 -5.048006,4.51009 -7.724076,6.4642 -5.252936,3.83578 -10.491316,7.71061 -15.995923,11.17555 -5.754641,3.62228 -15.2279199,7.2973 -22.7340132,8.53746 -0.7473759,0.12348 -2.6569735,0.2001 -2.5057902,-0.56276 0.1865909,-0.94152 -1.546758,-1.60186 -2.5068237,-2.80913 -1.8571959,-2.33537 -5.4416439,-2.66267 -8.7121299,-3.80958 -2.933163,-1.02862 -5.586058,-3.48592 -7.707023,-5.06843 -2.294284,-1.71183 -3.619499,-4.04558 -4.326867,-5.10563 -1.951132,-2.92392 -5.860581,-7.54423 -8.95811,-2.40812 -0.925059,0.25321 -2.412082,-0.0525 -2.298568,1.95699 0.278666,4.93313 -1.745446,10.69002 -2.144055,15.44195 -0.08426,1.00446 -0.623935,1.48502 -0.398942,2.47323 0.309715,1.36033 1.496812,3.15989 1.463477,4.72891 -0.02074,0.97607 1.718223,2.07212 1.013374,2.74764 -1.047318,-0.18548 -2.479571,-1.41213 -4.606437,-1.64331 -1.062341,-0.11547 -2.333211,-1.16028 -3.340881,-1.67794 -3.138347,-1.61222 -7.983043,-5.54793 -10.994678,-5.33352 -3.652424,0.26002 -4.857086,3.70385 -1.312581,4.53564 4.424535,1.03831 6.389254,3.99392 9.084717,6.12417 1.524147,1.20455 2.994254,2.44535 4.750097,3.37499 1.75441,0.92888 3.794482,1.54685 5.369182,2.72852 0.53044,0.39805 2.085074,0.52568 1.869653,1.1529 -2.077782,2.13832 -8.457764,1.27558 -12.681913,1.21853 -2.304415,-0.0311 -6.220837,0.313 -6.293673,2.88819 -0.07341,2.59552 3.275151,1.57318 5.179529,1.39372 3.252006,-0.30645 6.466338,0.97744 9.724988,1.20251 1.420154,0.0981 3.111802,0.82511 4.53719,0.84801 1.063698,0.0171 1.862226,-0.63578 2.919719,-0.73691 2.053271,-0.19635 4.399662,-1.88392 6.159314,-1.20561 1.022334,0.39409 2.263497,0.10456 2.802929,0.30334 -0.711677,0.71108 -2.068232,1.65043 -3.470589,2.63447 -1.05197,0.73813 -2.508963,1.07319 -3.696415,1.23248 -1.881083,0.25233 -4.266057,4.34724 -0.716752,4.44004 1.15353,0.0302 2.122927,-1.15298 3.611666,-1.10691 1.650834,0.0511 3.130912,-1.05684 4.714957,-1.52446 2.249828,-0.66417 4.306801,-1.2408 5.011581,-2.43551 1.057001,-1.79173 2.327393,-3.52579 3.940845,-4.83898 0.568784,-0.46294 0.766594,-1.34647 1.797306,-1.36426 1.015655,-0.0175 1.962316,-0.6192 2.920752,-0.93224 1.824897,-0.59605 3.720735,-0.80804 5.6115434,-0.98598 0.7517458,-0.0708 1.8167677,-0.63866 2.2649781,-0.031 -1.4350023,1.96942 -12.0717105,11.61505 -7.3344355,22.62963 1.358579,3.15879 2.060661,6.73547 4.2157628,9.41493 2.7470721,3.41542 7.6072392,5.07845 10.5177042,7.8605 2.2851067,2.18428 5.275385,3.48269 7.1406495,4.5036 2.4992325,1.3679 4.2105365,3.64555 6.0110025,6.07611 3.84744,5.19398 9.721822,9.24121 14.448731,12.81111 19.597459,14.80051 30.783421,14.82738 47.615698,15.92357 17.362249,1.1307 108.219323,-2.01835 162.332213,-1.73632 18.33311,0.0956 34.9293,-5.50313 52.48672,-22.76192 2.56521,-2.52158 4.80563,-3.1362 6.34535,-3.96979 4.0263,-2.17978 5.50977,-4.51351 8.44031,-6.52931 6.39184,-4.39669 11.48592,-6.54886 12.58166,-14.16348 0.34708,-2.41199 2.53842,-6.24013 2.17765,-9.19117 -0.93154,-7.61964 -6.46674,-13.76661 -6.00119,-13.82603 2.73727,-0.34933 5.16123,-0.3866 6.41977,-0.0667 5.93446,1.50863 4.88344,2.22149 6.5412,1.94717 1.27869,-0.21159 3.14072,1.20498 4.11189,1.73116 2.72078,1.47402 3.31534,-3.32696 1.3715,-4.05195 -1.1154,-0.41601 0.74708,-0.94135 2.2381,-1.39217 0.58882,-0.17804 0.62167,-0.8004 1.1958,-1.02267 0.59642,-0.23089 1.71993,-0.098 2.3213,-0.3142 2.93041,-1.05311 6.87627,-2.29604 8.10442,-3.69589 1.66791,-1.9012 5.67027,-1.65047 6.9174,-1.55391 3.44382,0.26665 4.08962,-3.40673 1.06299,-4.35478 -0.7944,-0.24883 -0.11868,-0.5706 1.07487,-1.40405 2.41557,-1.68676 7.20407,-0.75771 7.82691,-3.39204 0.62302,-2.63502 -4.14863,-2.83754 -6.70192,-2.83187 -3.90171,0.009 -6.18844,0.99516 -9.30124,3.3476 -0.69601,0.526 -2.46691,1.13287 -4.17597,1.13689 -1.50599,0.004 -2.99993,0.0591 -3.84059,1.10432 -0.17278,0.21481 0.25147,-2.34821 0.70796,-4.46846 0.41455,-1.92545 0.89427,-3.34259 0.24598,-4.6948 -0.8391,-1.75026 -0.0944,-6.9352 -0.40101,-9.01547 -0.47242,-3.206 0.16254,-3.61556 -0.49195,-6.59598 -0.28966,-1.31896 -1.85185,-1.07918 -3.27681,-0.44494 -0.40689,0.18111 -0.6604,-0.75028 -1.03869,-0.74259 -2.40631,0.0489 -4.55952,1.57638 -6.43062,3.59358 -1.33708,1.44149 -1.99929,3.43778 -3.39256,4.82503 -3.32806,3.31371 -7.16528,5.95927 -11.80548,7.70702 -0.97112,0.36578 -2.13217,0.37991 -3.1073,0.74724 -1.3332,0.50221 -2.34414,1.50006 -3.6835,2.11615 -1.15795,0.53264 -1.88977,1.72507 -2.94865,2.43448 -0.77967,0.52233 -1.91369,1.45813 -2.72852,1.34565 -16.94113,-2.33852 -32.34951,-12.30601 -45.7817,-22.46891 -2.79975,-2.11831 -5.59313,-4.72103 -8.67492,-6.78046 -2.67353,-1.78662 -5.66331,-2.92116 -7.83984,-5.9831 -2.34538,-3.29953 -3.99392,-10.3808 -4.85551,-15.91841 -0.65519,-4.21101 -0.4554,-8.50652 -1.68776,-12.83591 -1.76108,-6.18699 -5.06896,-12.55823 -4.99866,-18.95491 0.0786,-7.15289 3.38516,-14.29107 2.69803,-21.63176 -0.9275,-9.908581 -2.04503,-20.441125 -6.72827,-29.093312 -2.14197,-3.957213 -4.87896,-5.731319 -9.99112,-8.760189 -1.80913,-1.071872 -3.28419,-2.352508 -5.33301,-2.857707 -4.4851,-1.10593 -9.86543,-0.486303 -14.4291,-1.244885 -2.18768,-0.363649 -4.60068,0.01598 -6.60838,-0.943095 -1.07683,-0.514397 -2.17646,-1.331442 -2.62051,-2.439128 -0.52279,-1.304091 -1.64879,-2.478427 -3.09283,-2.285648 -1.58036,0.210974 -1.90277,-0.727807 -2.9807,-2.056206 -0.36006,-0.443726 -1.18035,-0.494911 -1.58957,-0.960148 -1.94083,-2.206492 -4.02687,-5.399742 -5.60896,-7.997444 -2.32982,-3.825477 -2.35078,-8.029897 -1.80764,-12.027173 0.37153,-2.734322 -0.15783,-5.31141 0.56017,-8.259444 0.13893,-0.570447 3.58462,-4.470307 4.9444,-7.299813 0.71091,-1.47925 1.15181,-4.773821 1.82883,-4.862236 1.46374,-0.1911532 -0.19241,3.640871 1.02888,3.532084 1.58059,-0.140788 0.0782,-3.204935 0.5023,-4.7340775 0.25567,-0.9220036 0.84047,-1.720493 1.21026,-2.6029419 0.85569,-2.0419843 1.78736,-4.0736876 2.32957,-6.22029216737 C 182.78757,-1.7414337 182.80686,-3.5723385 182.95082,-5.3740078 c 0.17042,-2.1329255 1.14309,-5.1815122 -0.0842,-6.9442792 -0.37118,-0.533119 -1.57734,0.08235 -1.8867,-0.488859 -0.66106,-1.220568 1.00053,-2.598038 1.32756,-3.947046 0.76541,-3.157303 1.78563,-6.401924 1.46762,-9.63507 -0.15154,-1.540502 -1.26262,-2.851668 -1.58027,-4.366659 -0.2483,-1.184244 0.15143,-2.476991 -0.23978,-3.622001 -0.54287,-1.588929 -2.22158,-2.60728 -2.81223,-4.179073 -0.49724,-1.323235 0.0863,-2.93746 -0.53537,-4.206979 -0.88174,-1.800487 -3.89862,-2.283465 -4.2478,-4.257621 -0.45127,-2.551315 -2.04542,-3.36844 -3.45405,-4.134114 -1.07906,-0.586523 -0.52292,-2.559911 -1.418,-3.400826 -1.25789,-1.18171 -4.74681,0.02681 -4.89376,-1.68982 -0.0811,-0.947919 -0.32251,-2.552955 -1.98903,-2.632914 -0.41925,-0.02012 -0.55464,1.376283 -4.16202,0.172083 -0.50535,-0.168694 -0.94102,0.57405 -1.46864,0.490926 -0.72923,-0.114889 -1.5544,-1.040068 -2.26653,-1.227316 -2.05186,-0.539512 -2.35453,-1.951155 -3.7729,-1.968355 z M 95.426953,132.86252 c 1.968688,1.3254 1.986784,7.36583 2.800346,9.16326 1.320686,2.91784 1.988301,5.18821 1.19631,8.17211 -0.538646,2.02941 1.978871,3.00492 1.478471,5.11338 -0.44183,1.8617 2.16913,3.08258 1.24333,4.65398 -0.4457,0.75652 1.0785,1.83384 1.26659,2.61638 0.20586,0.85646 -0.89714,1.41958 -0.81804,2.27066 0.80669,8.68032 4.44598,17.55909 2.40502,26.03511 -0.62967,2.61511 -2.39598,5.74152 -3.69021,8.1318 -0.93956,1.73526 -1.533788,3.14392 -2.681495,4.72374 -0.832971,1.14661 -2.162125,1.50829 -2.807064,2.61173 -1.164943,1.99312 -1.2325,4.45747 -1.622123,6.73292 -0.443034,2.58739 -0.797171,5.20863 -0.807703,7.83363 -0.0058,1.44702 0.595583,2.90217 0.410311,4.3217 -0.09376,0.71839 -0.712106,1.27704 -1.201477,1.81126 -0.47452,0.51801 -0.344099,1.977 -0.868164,2.48254 -0.633329,0.61093 -2.033357,0.84149 -2.770374,0.42013 -3.05926,-1.74901 -10.151263,-2.77889 -15.933911,-3.59668 -2.986925,-0.42242 -4.273294,-0.85731 -7.009908,-1.74977 -5.426317,-1.7696 -10.989868,-2.99845 -18.182869,-3.7393 -2.574523,-0.26516 -6.698099,-1.66641 -9.04596,-2.66496 -10.718714,-4.55868 -15.766683,-5.07764 -21.798152,-6.44198 12.574951,-3.48961 33.357728,-8.90405 42.856815,-15.72927 4.564783,-3.27987 9.751417,-6.5414 14.311788,-8.62997 2.550156,-1.16792 4.513145,-3.01127 5.349028,-6.46989 1.460176,-6.04174 4.678717,-9.4603 7.338053,-13.63844 4.390313,-6.89767 4.599841,-15.35313 7.08949,-23.22701 1.008425,-3.18926 0.829626,-7.47873 1.491898,-11.20706 z M 202.1052,149.57726 c 0,0 2.18612,19.62005 6.90087,26.7596 1.87164,2.83422 2.80453,5.56743 2.88872,7.90288 0.23661,6.56368 3.06126,8.3159 4.78058,8.99428 5.18687,2.04661 9.76047,5.42175 14.84716,7.70599 2.87396,1.2906 5.53669,2.9807 8.26151,4.40387 9.09782,4.75176 19.59814,6.11145 29.4535,8.97878 3.03219,0.88219 7.10856,1.78272 9.12967,2.53059 -5.00713,1.08533 -12.60484,3.48224 -17.20876,3.68919 -6.01228,0.27024 -9.87274,1.05025 -16.77004,2.18746 -4.12274,0.67974 -8.22448,1.55527 -12.38684,1.92081 -4.05966,0.35652 -8.11135,0.40883 -12.24215,1.19269 -0.70803,0.13436 -1.47296,0.57712 -2.1978,0.5116 -0.4465,-0.0404 -0.85384,-0.55847 -1.29449,-0.61237 -0.59549,-0.0728 -1.07854,0.12214 -1.66347,-0.0145 -0.61393,-0.14335 -1.3297,-0.62039 -1.94096,-0.77153 -0.48834,-0.12074 -1.005,-0.074 -1.48518,-0.23668 -0.39942,-0.13533 -0.76039,-0.49223 -1.17874,-0.50075 -0.49188,-0.01 -0.94078,0.0648 -1.22215,-0.10955 -0.43969,-0.27233 -0.6096,-0.87914 -0.96325,-1.26711 -0.45299,-0.49694 -1.20537,-1.01637 -1.46864,-1.64641 -0.15987,-0.38256 0.10008,-0.84865 0.002,-1.24488 -0.92045,-3.70203 -1.32473,-7.269 -1.92649,-10.86704 -0.24711,-1.47751 -0.13464,-3.20833 -0.55604,-4.74338 -0.13639,-0.49684 -0.80136,-0.43608 -1.03663,-0.8971 -0.27774,-0.54425 -0.14098,-1.60476 -0.33486,-2.18127 -2.51632,-7.48224 -5.32729,-12.47501 -5.46995,-20.25561 -0.10126,-5.52296 1.80617,-11.0672 1.42782,-16.48271 -0.0314,-0.44992 -0.8537,-1.20434 -0.53279,-1.52136 1.11007,-1.09658 0.81631,-2.39652 1.048,-3.66024 0.0504,-0.27467 -0.35998,-0.66401 -0.22169,-0.9064 0.64794,-1.13561 1.55021,-2.13395 1.33583,-3.22203 -0.15351,-0.77912 0.46765,-1.56451 0.37207,-2.35283 -0.1044,-0.86104 0.0803,-1.66747 0.66456,-2.23913 0.27604,-0.27009 0.98857,-1.0449 0.98857,-1.0449 z m -238.03612,36.90059 c 0.04996,0.002 0.103872,0.0221 0.161747,0.062 3.003778,2.06923 5.752407,7.02478 7.053833,10.82363 0.459294,1.34067 0.962444,3.30357 -0.09198,4.25038 -1.255133,1.12708 -2.351847,4.67255 -3.471623,4.63745 -0.28721,-0.009 -0.855461,-1.28914 -1.781286,-1.34824 -0.784924,-0.0501 -0.277703,-1.55109 -0.49196,-2.30787 -0.440139,-1.55461 -1.126111,-3.02979 -1.624707,-4.56665 -0.284382,-0.87657 -1.03847,-1.76835 -0.778764,-2.65255 0.628734,-2.14059 0.551798,-4.4413 0.449585,-6.65024 -0.0314,-0.67863 0.09222,-2.27175 0.575159,-2.24792 z m 370.80941,7.06933 c 0.0566,1.95465 -0.0897,2.81966 -0.0827,4.22972 0.007,1.47814 0.11289,2.95652 -0.8847,4.37234 -1.81997,2.58296 -0.27546,7.59686 -1.71411,6.88227 -0.65173,-0.32372 -1.13518,0.96678 -1.82521,1.19786 -0.46508,0.1557 -1.06876,0.38063 -1.46864,0.0966 -0.71016,-0.50437 -0.8591,-2.17089 -0.8444,-2.29391 0.31094,-2.60835 -1.88923,-3.08625 -1.19786,-4.34031 2.08568,-3.78309 4.1476,-7.65269 8.0176,-10.1446 z" /><path
       id="path1"
       style="fill:#000000;fill-opacity:0.713725;stroke:none;stroke-width:1.05833;stroke-opacity:0.501384"
       d="m 150.93468,-61.411931 c -0.90231,-0.01094 -1.68949,0.479176 -2.45721,1.0573 -0.57281,0.43135 -1.66735,-1.092035 -2.25826,-0.733805 -0.523,0.317054 -0.53636,2.541969 -1.13223,2.548681 -1.18447,0.01334 -2.07077,-1.764626 -3.2241,-1.494482 -1.11098,0.260232 -1.13489,2.136 -2.14353,2.669604 -0.88082,0.465987 -2.05891,-0.144168 -2.98018,0.235645 -0.95759,0.394782 -1.45343,1.527529 -2.3704,2.009179 -0.63436,0.33321 -1.55966,0.06315 -2.07481,0.561207 -0.7869,0.760798 -0.43808,2.1793 -0.96377,3.139343 -0.44489,0.812482 -0.91485,1.841451 -1.79885,2.118217 -1.01092,0.316499 -2.15553,-1.349735 -3.07113,-0.817005 -0.86167,0.501352 -0.42819,1.952321 -0.76016,2.89233 -0.92075,2.607212 -2.10068,5.125575 -3.39773,7.567497 -0.42488,0.799907 0.11025,0.850119 -0.47594,1.582332 -0.52467,0.655375 -1.5797,1.892473 -1.62005,2.702161 -0.0592,1.187969 1.02509,2.15674 0.95239,3.299023 -0.0464,0.72988 -0.6395,1.319485 -0.87075,2.013314 -0.51724,1.551877 -0.22942,3.415803 -1.1436,4.772319 -0.62872,0.93299 -2.52277,0.858634 -2.74711,1.96112 -0.25422,1.249311 1.67162,2.02958 1.99677,3.262334 0.37934,1.43821 0.72852,3.258957 -0.14934,4.459676 -0.47371,0.64793 -1.82881,0.136099 -2.26911,0.807186 -1.07937,1.645133 0.15109,3.937234 0.39997,5.8890457 0.43557,3.4158804 1.01539,6.8274186 1.90945,10.1528687 0.34239,1.2735109 0.54679,2.6598704 1.31671,3.7305216 0.43548,0.6055806 1.32375,0.7749916 1.7632,1.3776937 0.35367,0.4850565 1.13942,-0.00759 1.31517,0.5705078 0.31089,1.0225478 0.0369,3.1139375 0.40669,4.1093095 1.45515,3.91704 4.652,7.143857 6.17017,8.753471 0.71507,0.758143 -0.12569,2.083938 -0.0873,3.125391 0.0415,1.127168 0.21334,2.245764 0.34313,3.366203 0.57433,4.957898 1.75452,10.236641 -1.91926,14.647168 -1.60108,1.922152 -2.99426,4.032138 -4.21783,6.217191 -0.42711,0.76274 -0.69163,1.655866 -1.90789,1.714108 -0.89301,0.04276 -1.60228,0.935573 -2.08308,1.689302 -0.37187,0.582959 -0.6606,1.115261 -1.9358,0.73794 -1.20773,-0.357359 -2.23037,1.246254 -3.10627,2.151289 -0.31483,0.325303 -0.4253,0.812135 -0.73639,1.141016 -0.40993,0.433372 -0.90487,0.80425 -1.44746,1.052132 -0.60062,0.274407 -1.27827,0.34014 -1.92959,0.449068 -4.23898,0.708955 -8.544,0.944976 -12.825066,1.324467 -2.629841,0.233123 -5.364869,-0.154802 -7.89926,0.584978 -1.90797,0.556926 -3.738406,1.523954 -5.249292,2.827734 -2.684749,2.316739 -6.298832,3.578379 -8.764839,6.192904 -3.09152,3.277703 -4.401482,8.550294 -5.917985,12.904122 -2.343165,6.727127 -2.99795,13.984422 -3.421497,21.095354 -0.436167,7.32279 2.40212,16.09636 1.518254,20.19773 -1.478064,6.85865 -5.487285,13.43133 -7.262606,20.74551 -2.056345,8.47193 -1.325237,17.50104 -9.285222,24.64294 -2.646983,2.3749 -5.797075,3.92291 -8.66252,6.03529 -2.669932,1.96821 -5.048006,4.51009 -7.724076,6.4642 -5.252936,3.83578 -10.491316,7.71061 -15.995923,11.17555 -5.754641,3.62228 -15.2279199,7.2973 -22.7340132,8.53746 -0.7473759,0.12348 -2.6569735,0.2001 -2.5057902,-0.56276 0.1865909,-0.94152 -1.546758,-1.60186 -2.5068237,-2.80913 -1.8571959,-2.33537 -5.4416439,-2.66267 -8.7121299,-3.80958 -2.933163,-1.02862 -5.586058,-3.48592 -7.707023,-5.06843 -2.294284,-1.71183 -3.619499,-4.04558 -4.326867,-5.10563 -1.951132,-2.92392 -5.860581,-7.54423 -8.95811,-2.40812 -0.925059,0.25321 -2.412082,-0.0525 -2.298568,1.95699 0.278666,4.93313 -1.745446,10.69002 -2.144055,15.44195 -0.08426,1.00446 -0.623935,1.48502 -0.398942,2.47323 0.309715,1.36033 1.496812,3.15989 1.463477,4.72891 -0.02074,0.97607 1.718223,2.07212 1.013374,2.74764 -1.047318,-0.18548 -2.479571,-1.41213 -4.606437,-1.64331 -1.062341,-0.11547 -2.333211,-1.16028 -3.340881,-1.67794 -3.138347,-1.61222 -7.983043,-5.54793 -10.994678,-5.33352 -3.652424,0.26002 -4.857086,3.70385 -1.312581,4.53564 4.424535,1.03831 6.389254,3.99392 9.084717,6.12417 1.524147,1.20455 2.994254,2.44535 4.750097,3.37499 1.75441,0.92888 3.794482,1.54685 5.369182,2.72852 0.53044,0.39805 2.085074,0.52568 1.869653,1.1529 -2.077782,2.13832 -8.457764,1.27558 -12.681913,1.21853 -2.304415,-0.0311 -6.220837,0.313 -6.293673,2.88819 -0.07341,2.59552 3.275151,1.57318 5.179529,1.39372 3.252006,-0.30645 6.466338,0.97744 9.724988,1.20251 1.420154,0.0981 3.111802,0.82511 4.53719,0.84801 1.063698,0.0171 1.862226,-0.63578 2.919719,-0.73691 2.053271,-0.19635 4.399662,-1.88392 6.159314,-1.20561 1.022334,0.39409 2.263497,0.10456 2.802929,0.30334 -0.711677,0.71108 -2.068232,1.65043 -3.470589,2.63447 -1.05197,0.73813 -2.508963,1.07319 -3.696415,1.23248 -1.881083,0.25233 -4.266057,4.34724 -0.716752,4.44004 1.15353,0.0302 2.122927,-1.15298 3.611666,-1.10691 1.650834,0.0511 3.130912,-1.05684 4.714957,-1.52446 2.249828,-0.66417 4.306801,-1.2408 5.011581,-2.43551 1.057001,-1.79173 2.327393,-3.52579 3.940845,-4.83898 0.568784,-0.46294 0.766594,-1.34647 1.797306,-1.36426 1.015655,-0.0175 1.962316,-0.6192 2.920752,-0.93224 1.824897,-0.59605 3.720735,-0.80804 5.6115434,-0.98598 0.7517458,-0.0708 1.8167677,-0.63866 2.2649781,-0.031 -1.4350023,1.96942 -12.0717105,11.61505 -7.3344355,22.62963 1.358579,3.15879 2.060661,6.73547 4.2157628,9.41493 2.7470721,3.41542 7.6072392,5.07845 10.5177042,7.8605 2.2851067,2.18428 5.275385,3.48269 7.1406495,4.5036 2.4992325,1.3679 4.2105365,3.64555 6.0110025,6.07611 3.84744,5.19398 9.721822,9.24121 14.448731,12.81111 19.597459,14.80051 30.783421,14.82738 47.615698,15.92357 17.362249,1.1307 108.219323,-2.01835 162.332213,-1.73632 18.33311,0.0956 34.9293,-5.50313 52.48672,-22.76192 2.56521,-2.52158 4.80563,-3.1362 6.34535,-3.96979 4.0263,-2.17978 5.50977,-4.51351 8.44031,-6.52931 6.39184,-4.39669 11.48592,-6.54886 12.58166,-14.16348 0.34708,-2.41199 2.53842,-6.24013 2.17765,-9.19117 -0.93154,-7.61964 -6.46674,-13.76661 -6.00119,-13.82603 2.73727,-0.34933 5.16123,-0.3866 6.41977,-0.0667 5.93446,1.50863 4.88344,2.22149 6.5412,1.94717 1.27869,-0.21159 3.14072,1.20498 4.11189,1.73116 2.72078,1.47402 3.31534,-3.32696 1.3715,-4.05195 -1.1154,-0.41601 0.74708,-0.94135 2.2381,-1.39217 0.58882,-0.17804 0.62167,-0.8004 1.1958,-1.02267 0.59642,-0.23089 1.71993,-0.098 2.3213,-0.3142 2.93041,-1.05311 6.87627,-2.29604 8.10442,-3.69589 1.66791,-1.9012 5.67027,-1.65047 6.9174,-1.55391 3.44382,0.26665 4.08962,-3.40673 1.06299,-4.35478 -0.7944,-0.24883 -0.11868,-0.5706 1.07487,-1.40405 2.41557,-1.68676 7.20407,-0.75771 7.82691,-3.39204 0.62302,-2.63502 -4.14863,-2.83754 -6.70192,-2.83187 -3.90171,0.009 -6.18844,0.99516 -9.30124,3.3476 -0.69601,0.526 -2.46691,1.13287 -4.17597,1.13689 -1.50599,0.004 -2.99993,0.0591 -3.84059,1.10432 -0.17278,0.21481 0.25147,-2.34821 0.70796,-4.46846 0.41455,-1.92545 0.89427,-3.34259 0.24598,-4.6948 -0.8391,-1.75026 -0.0944,-6.9352 -0.40101,-9.01547 -0.47242,-3.206 0.16254,-3.61556 -0.49195,-6.59598 -0.28966,-1.31896 -1.85185,-1.07918 -3.27681,-0.44494 -0.40689,0.18111 -0.6604,-0.75028 -1.03869,-0.74259 -2.40631,0.0489 -4.55952,1.57638 -6.43062,3.59358 -1.33708,1.44149 -1.99929,3.43778 -3.39256,4.82503 -3.32806,3.31371 -7.16528,5.95927 -11.80548,7.70702 -0.97112,0.36578 -2.13217,0.37991 -3.1073,0.74724 -1.3332,0.50221 -2.34414,1.50006 -3.6835,2.11615 -1.15795,0.53264 -1.88977,1.72507 -2.94865,2.43448 -0.77967,0.52233 -1.91369,1.45813 -2.72852,1.34565 -16.94113,-2.33852 -32.34951,-12.30601 -45.7817,-22.46891 -2.79975,-2.11831 -5.59313,-4.72103 -8.67492,-6.78046 -2.67353,-1.78662 -5.66331,-2.92116 -7.83984,-5.9831 -2.34538,-3.29953 -3.99392,-10.3808 -4.85551,-15.91841 -0.65519,-4.21101 -0.4554,-8.50652 -1.68776,-12.83591 -1.76108,-6.18699 -5.06896,-12.55823 -4.99866,-18.95491 0.0786,-7.15289 3.38516,-14.29107 2.69803,-21.63176 -0.9275,-9.908581 -2.04503,-20.441125 -6.72827,-29.093312 -2.14197,-3.957213 -4.87896,-5.731319 -9.99112,-8.760189 -1.80913,-1.071872 -3.28419,-2.352508 -5.33301,-2.857707 -4.4851,-1.10593 -9.86543,-0.486303 -14.4291,-1.244885 -2.18768,-0.363649 -4.60068,0.01598 -6.60838,-0.943095 -1.07683,-0.514397 -2.17646,-1.331442 -2.62051,-2.439128 -0.52279,-1.304091 -1.64879,-2.478427 -3.09283,-2.285648 -1.58036,0.210974 -1.90277,-0.727807 -2.9807,-2.056206 -0.36006,-0.443726 -1.18035,-0.494911 -1.58957,-0.960148 -1.94083,-2.206492 -4.02687,-5.399742 -5.60896,-7.997444 -2.32982,-3.825477 -2.35078,-8.029897 -1.80764,-12.027173 0.37153,-2.734322 -0.15783,-5.31141 0.56017,-8.259444 0.13893,-0.570447 3.58462,-4.470307 4.9444,-7.299813 0.71091,-1.47925 1.15181,-4.773821 1.82883,-4.862236 1.46374,-0.1911532 -0.19241,3.640871 1.02888,3.532084 1.58059,-0.140788 0.0782,-3.204935 0.5023,-4.7340775 0.25567,-0.9220036 0.84047,-1.720493 1.21026,-2.6029419 0.85569,-2.0419843 1.78736,-4.0736876 2.32957,-6.22029216737 C 182.78757,-1.7414337 182.80686,-3.5723385 182.95082,-5.3740078 c 0.17042,-2.1329255 1.14309,-5.1815122 -0.0842,-6.9442792 -0.37118,-0.533119 -1.57734,0.08235 -1.8867,-0.488859 -0.66106,-1.220568 1.00053,-2.598038 1.32756,-3.947046 0.76541,-3.157303 1.78563,-6.401924 1.46762,-9.63507 -0.15154,-1.540502 -1.26262,-2.851668 -1.58027,-4.366659 -0.2483,-1.184244 0.15143,-2.476991 -0.23978,-3.622001 -0.54287,-1.588929 -2.22158,-2.60728 -2.81223,-4.179073 -0.49724,-1.323235 0.0863,-2.93746 -0.53537,-4.206979 -0.88174,-1.800487 -3.89862,-2.283465 -4.2478,-4.257621 -0.45127,-2.551315 -2.04542,-3.36844 -3.45405,-4.134114 -1.07906,-0.586523 -0.52292,-2.559911 -1.418,-3.400826 -1.25789,-1.18171 -4.74681,0.02681 -4.89376,-1.68982 -0.0811,-0.947919 -0.32251,-2.552955 -1.98903,-2.632914 -0.41925,-0.02012 -0.55464,1.376283 -4.16202,0.172083 -0.50535,-0.168694 -0.94102,0.57405 -1.46864,0.490926 -0.72923,-0.114889 -1.5544,-1.040068 -2.26653,-1.227316 -2.05186,-0.539512 -2.35453,-1.951155 -3.7729,-1.968355 z M 95.426953,132.86252 c 1.968688,1.3254 1.986784,7.36583 2.800346,9.16326 1.320686,2.91784 1.988301,5.18821 1.19631,8.17211 -0.538646,2.02941 1.978871,3.00492 1.478471,5.11338 -0.44183,1.8617 2.16913,3.08258 1.24333,4.65398 -0.4457,0.75652 1.0785,1.83384 1.26659,2.61638 0.20586,0.85646 -0.89714,1.41958 -0.81804,2.27066 0.80669,8.68032 4.44598,17.55909 2.40502,26.03511 -0.62967,2.61511 -2.39598,5.74152 -3.69021,8.1318 -0.93956,1.73526 -1.533788,3.14392 -2.681495,4.72374 -0.832971,1.14661 -2.162125,1.50829 -2.807064,2.61173 -1.164943,1.99312 -1.2325,4.45747 -1.622123,6.73292 -0.443034,2.58739 -0.797171,5.20863 -0.807703,7.83363 -0.0058,1.44702 0.595583,2.90217 0.410311,4.3217 -0.09376,0.71839 -0.712106,1.27704 -1.201477,1.81126 -0.47452,0.51801 -0.344099,1.977 -0.868164,2.48254 -0.633329,0.61093 -2.033357,0.84149 -2.770374,0.42013 -3.05926,-1.74901 -10.151263,-2.77889 -15.933911,-3.59668 -2.986925,-0.42242 -4.273294,-0.85731 -7.009908,-1.74977 -5.426317,-1.7696 -10.989868,-2.99845 -18.182869,-3.7393 -2.574523,-0.26516 -6.698099,-1.66641 -9.04596,-2.66496 -10.718714,-4.55868 -15.766683,-5.07764 -21.798152,-6.44198 12.574951,-3.48961 33.357728,-8.90405 42.856815,-15.72927 4.564783,-3.27987 9.751417,-6.5414 14.311788,-8.62997 2.550156,-1.16792 4.513145,-3.01127 5.349028,-6.46989 1.460176,-6.04174 4.678717,-9.4603 7.338053,-13.63844 4.390313,-6.89767 4.599841,-15.35313 7.08949,-23.22701 1.008425,-3.18926 0.829626,-7.47873 1.491898,-11.20706 z M 202.1052,149.57726 c 0,0 2.18612,19.62005 6.90087,26.7596 1.87164,2.83422 2.80453,5.56743 2.88872,7.90288 0.23661,6.56368 3.06126,8.3159 4.78058,8.99428 5.18687,2.04661 9.76047,5.42175 14.84716,7.70599 2.87396,1.2906 5.53669,2.9807 8.26151,4.40387 9.09782,4.75176 19.59814,6.11145 29.4535,8.97878 3.03219,0.88219 7.10856,1.78272 9.12967,2.53059 -5.00713,1.08533 -12.60484,3.48224 -17.20876,3.68919 -6.01228,0.27024 -9.87274,1.05025 -16.77004,2.18746 -4.12274,0.67974 -8.22448,1.55527 -12.38684,1.92081 -4.05966,0.35652 -8.11135,0.40883 -12.24215,1.19269 -0.70803,0.13436 -1.47296,0.57712 -2.1978,0.5116 -0.4465,-0.0404 -0.85384,-0.55847 -1.29449,-0.61237 -0.59549,-0.0728 -1.07854,0.12214 -1.66347,-0.0145 -0.61393,-0.14335 -1.3297,-0.62039 -1.94096,-0.77153 -0.48834,-0.12074 -1.005,-0.074 -1.48518,-0.23668 -0.39942,-0.13533 -0.76039,-0.49223 -1.17874,-0.50075 -0.49188,-0.01 -0.94078,0.0648 -1.22215,-0.10955 -0.43969,-0.27233 -0.6096,-0.87914 -0.96325,-1.26711 -0.45299,-0.49694 -1.20537,-1.01637 -1.46864,-1.64641 -0.15987,-0.38256 0.10008,-0.84865 0.002,-1.24488 -0.92045,-3.70203 -1.32473,-7.269 -1.92649,-10.86704 -0.24711,-1.47751 -0.13464,-3.20833 -0.55604,-4.74338 -0.13639,-0.49684 -0.80136,-0.43608 -1.03663,-0.8971 -0.27774,-0.54425 -0.14098,-1.60476 -0.33486,-2.18127 -2.51632,-7.48224 -5.32729,-12.47501 -5.46995,-20.25561 -0.10126,-5.52296 1.80617,-11.0672 1.42782,-16.48271 -0.0314,-0.44992 -0.8537,-1.20434 -0.53279,-1.52136 1.11007,-1.09658 0.81631,-2.39652 1.048,-3.66024 0.0504,-0.27467 -0.35998,-0.66401 -0.22169,-0.9064 0.64794,-1.13561 1.55021,-2.13395 1.33583,-3.22203 -0.15351,-0.77912 0.46765,-1.56451 0.37207,-2.35283 -0.1044,-0.86104 0.0803,-1.66747 0.66456,-2.23913 0.27604,-0.27009 0.98857,-1.0449 0.98857,-1.0449 z m -238.03612,36.90059 c 0.04996,0.002 0.103872,0.0221 0.161747,0.062 3.003778,2.06923 5.752407,7.02478 7.053833,10.82363 0.459294,1.34067 0.962444,3.30357 -0.09198,4.25038 -1.255133,1.12708 -2.351847,4.67255 -3.471623,4.63745 -0.28721,-0.009 -0.855461,-1.28914 -1.781286,-1.34824 -0.784924,-0.0501 -0.277703,-1.55109 -0.49196,-2.30787 -0.440139,-1.55461 -1.126111,-3.02979 -1.624707,-4.56665 -0.284382,-0.87657 -1.03847,-1.76835 -0.778764,-2.65255 0.628734,-2.14059 0.551798,-4.4413 0.449585,-6.65024 -0.0314,-0.67863 0.09222,-2.27175 0.575159,-2.24792 z m 370.80941,7.06933 c 0.0566,1.95465 -0.0897,2.81966 -0.0827,4.22972 0.007,1.47814 0.11289,2.95652 -0.8847,4.37234 -1.81997,2.58296 -0.27546,7.59686 -1.71411,6.88227 -0.65173,-0.32372 -1.13518,0.96678 -1.82521,1.19786 -0.46508,0.1557 -1.06876,0.38063 -1.46864,0.0966 -0.71016,-0.50437 -0.8591,-2.17089 -0.8444,-2.29391 0.31094,-2.60835 -1.88923,-3.08625 -1.19786,-4.34031 2.08568,-3.78309 4.1476,-7.65269 8.0176,-10.1446 z" /></g><metadata
     id="metadata12"><rdf:RDF><cc:Work
         rdf:about=""><dc:date>2024</dc:date><dc:creator><cc:Agent><dc:title>Nicco Kunzmann</dc:title></cc:Agent></dc:creator><dc:title>Chakras</dc:title><cc:license
           rdf:resource="http://creativecommons.org/licenses/by-sa/4.0/" /></cc:Work><cc:License
         rdf:about="http://creativecommons.org/licenses/by-sa/4.0/"><cc:permits
           rdf:resource="http://creativecommons.org/ns#Reproduction" /><cc:permits
           rdf:resource="http://creativecommons.org/ns#Distribution" /><cc:requires
           rdf:resource="http://creativecommons.org/ns#Notice" /><cc:requires
           rdf:resource="http://creativecommons.org/ns#Attribution" /><cc:permits
           rdf:resource="http://creativecommons.org/ns#DerivativeWorks" /><cc:requires
           rdf:resource="http://creativecommons.org/ns#ShareAlike" /></cc:License></rdf:RDF></metadata></svg>
