<?xml version="1.0" encoding="UTF-8" standalone="no"?>
<!-- Created with Inkscape (http://www.inkscape.org/) -->

<svg
   width="256"
   height="256"
   viewBox="0 0 67.733332 67.733333"
   version="1.1"
   id="svg1"
   inkscape:version="1.3.2 (1:1.3.2+202311252150+091e20ef0f)"
   sodipodi:docname="heart.svg"
   xmlns:inkscape="http://www.inkscape.org/namespaces/inkscape"
   xmlns:sodipodi="http://sodipodi.sourceforge.net/DTD/sodipodi-0.dtd"
   xmlns="http://www.w3.org/2000/svg"
   xmlns:svg="http://www.w3.org/2000/svg"
   xmlns:rdf="http://www.w3.org/1999/02/22-rdf-syntax-ns#"
   xmlns:cc="http://creativecommons.org/ns#"
   xmlns:dc="http://purl.org/dc/elements/1.1/">
  <title
     id="title13">Heart Chakra Lotus Flower</title>
  <sodipodi:namedview
     id="namedview1"
     pagecolor="#505050"
     bordercolor="#eeeeee"
     borderopacity="1"
     inkscape:showpageshadow="0"
     inkscape:pageopacity="0"
     inkscape:pagecheckerboard="0"
     inkscape:deskcolor="#505050"
     inkscape:document-units="px"
     inkscape:zoom="2.6661141"
     inkscape:cx="121.1501"
     inkscape:cy="137.46598"
     inkscape:window-width="1920"
     inkscape:window-height="1149"
     inkscape:window-x="0"
     inkscape:window-y="25"
     inkscape:window-maximized="1"
     inkscape:current-layer="layer2" />
  <defs
     id="defs1" />
  <g
     inkscape:groupmode="layer"
     id="layer2"
     inkscape:label="background">
    <path
       id="path9"
       style="fill:#55ff55;fill-opacity:0.99935573;stroke-width:4.61367"
       d="m 65.576681,42.376085 a 32.808332,32.808332 0 0 0 0.14683,-0.758802 32.808332,32.808332 0 0 0 0.444016,-2.291523 32.808332,32.808332 0 0 0 0.336175,-2.312646 32.808332,32.808332 0 0 0 0.113235,-2.327813 32.808332,32.808332 0 0 0 0.0039,-2.341549 32.808332,32.808332 0 0 0 -0.218728,-2.322953 32.808332,32.808332 0 0 0 -0.327738,-2.3107 A 32.808332,32.808332 0 0 0 65.525307,25.434412 32.808332,32.808332 0 0 0 64.872975,23.19585 32.808332,32.808332 0 0 0 64.009594,21.029267 32.808332,32.808332 0 0 0 63.041431,18.897839 32.808332,32.808332 0 0 0 61.880355,16.879016 32.808332,32.808332 0 0 0 60.618936,14.905861 32.808332,32.808332 0 0 0 59.180703,13.070354 32.808332,32.808332 0 0 0 57.654065,11.299783 32.808332,32.808332 0 0 0 57.150219,10.715953 32.808332,32.808332 0 0 0 55.969935,9.6875854 32.808332,32.808332 0 0 0 54.204999,8.1506529 32.808332,32.808332 0 0 0 52.311434,6.7958935 32.808332,32.808332 0 0 0 50.342539,5.5230509 32.808332,32.808332 0 0 0 48.275531,4.4519596 32.808332,32.808332 0 0 0 46.150979,3.4737675 32.808332,32.808332 0 0 0 43.945075,2.7044102 32.808332,32.808332 0 0 0 42.463887,2.1878062 32.808332,32.808332 0 0 0 41.705476,2.0395273 32.808332,32.808332 0 0 0 39.414375,1.5919951 32.808332,32.808332 0 0 0 37.102637,1.2524344 32.808332,32.808332 0 0 0 34.773927,1.1348144 32.808332,32.808332 0 0 0 32.436443,1.1273084 32.808332,32.808332 0 0 0 30.106628,1.342641 32.808332,32.808332 0 0 0 27.79793,1.6667712 32.808332,32.808332 0 0 0 25.524508,2.2112895 32.808332,32.808332 0 0 0 23.283077,2.8607802 32.808332,32.808332 0 0 0 21.112533,3.7215437 32.808332,32.808332 0 0 0 18.98424,4.683809 a 32.808332,32.808332 0 0 0 -2.028438,1.1621241 32.808332,32.808332 0 0 0 -1.967308,1.2531365 32.808332,32.808332 0 0 0 -1.846381,1.4420592 32.808332,32.808332 0 0 0 -1.763591,1.5160692 32.808332,32.808332 0 0 0 -0.588477,0.50571 l 0.05218,0.05285 a 32.808332,32.808332 0 0 0 -0.147329,0.153322 l -0.05565,-0.05534 A 32.808332,32.808332 0 0 0 9.6821296,11.823455 32.808332,32.808332 0 0 0 8.1603869,13.587798 32.808332,32.808332 0 0 0 6.7957833,15.489088 32.808332,32.808332 0 0 0 5.5400378,17.4522 32.808332,32.808332 0 0 0 4.4591969,19.528516 32.808332,32.808332 0 0 0 3.4957455,21.65028 32.808332,32.808332 0 0 0 2.7218717,23.857565 32.808332,32.808332 0 0 0 2.2387033,25.235245 l 0.07531,0.0207 a 32.808332,32.808332 0 0 0 -0.059543,0.204831 l -0.071568,-0.01917 a 32.808332,32.808332 0 0 0 -0.3503504,1.466133 32.808332,32.808332 0 0 0 -0.012642,0.05104 32.808332,32.808332 0 0 0 -0.6435706,4.531422 32.808332,32.808332 0 0 0 -0.011146,0.128654 32.808332,32.808332 0 0 0 0.00705,4.511401 32.808332,32.808332 0 0 0 0.011897,0.195466 32.808332,32.808332 0 0 0 0.6411179,4.41387 32.808332,32.808332 0 0 0 0.049571,0.236659 32.808332,32.808332 0 0 0 1.2525715,4.246011 32.808332,32.808332 0 0 0 0.092798,0.251352 32.808332,32.808332 0 0 0 1.8362743,4.009562 32.808332,32.808332 0 0 0 0.1335754,0.244158 32.808332,32.808332 0 0 0 2.3869733,3.706741 32.808332,32.808332 0 0 0 0.1645249,0.217707 32.808332,32.808332 0 0 0 2.9001134,3.340989 32.808332,32.808332 0 0 0 0.07052,0.08109 32.808332,32.808332 0 0 0 0.395614,0.376544 32.808332,32.808332 0 0 0 0.581245,0.552224 32.808332,32.808332 0 0 0 0.603481,0.536934 32.808332,32.808332 0 0 0 0.6094,0.524526 32.808332,32.808332 0 0 0 0.613078,0.493378 32.808332,32.808332 0 0 0 0.655044,0.510843 32.808332,32.808332 0 0 0 0.629828,0.457959 32.808332,32.808332 0 0 0 0.669799,0.471256 32.808332,32.808332 0 0 0 0.678634,0.444083 32.808332,32.808332 0 0 0 0.670951,0.424405 32.808332,32.808332 0 0 0 0.700942,0.411155 32.808332,32.808332 0 0 0 0.692601,0.391906 32.808332,32.808332 0 0 0 0.720923,0.377162 32.808332,32.808332 0 0 0 0.711176,0.357446 32.808332,32.808332 0 0 0 0.736125,0.339774 32.808332,32.808332 0 0 0 0.731049,0.323899 32.808332,32.808332 0 0 0 0.738402,0.298399 32.808332,32.808332 0 0 0 0.764331,0.294468 32.808332,32.808332 0 0 0 0.734389,0.255344 32.808332,32.808332 0 0 0 0.792813,0.261671 32.808332,32.808332 0 0 0 0.748105,0.219628 32.808332,32.808332 0 0 0 0.53628,0.157176 32.808332,32.808332 0 0 0 0.106523,0.02027 32.808332,32.808332 0 0 0 4.34751,0.834771 32.808332,32.808332 0 0 0 0.263812,0.03285 32.808332,32.808332 0 0 0 4.405662,0.207691 32.808332,32.808332 0 0 0 0.281239,-0.007 32.808332,32.808332 0 0 0 4.388067,-0.421026 32.808332,32.808332 0 0 0 0.264643,-0.0457 32.808332,32.808332 0 0 0 4.305663,-1.045876 32.808332,32.808332 0 0 0 0.222854,-0.07348 32.808332,32.808332 0 0 0 4.141242,-1.658466 32.808332,32.808332 0 0 0 0.180274,-0.09059 32.808332,32.808332 0 0 0 3.902548,-2.253137 32.808332,32.808332 0 0 0 0.107286,-0.07542 32.808332,32.808332 0 0 0 3.599918,-2.829698 32.808332,32.808332 0 0 0 0.03331,-0.03149 32.808332,32.808332 0 0 0 1.095856,-1.041446 32.808332,32.808332 0 0 0 1.030829,-1.187427 32.808332,32.808332 0 0 0 1.527734,-1.759625 32.808332,32.808332 0 0 0 1.35774,-1.904686 32.808332,32.808332 0 0 0 1.262998,-1.961167 32.808332,32.808332 0 0 0 1.073106,-2.07839 32.808332,32.808332 0 0 0 0.971187,-2.119691 32.808332,32.808332 0 0 0 0.765973,-2.206811 32.808332,32.808332 0 0 0 0.514315,-1.482317 z"
       inkscape:label="circle" />
  </g>
  <g
     inkscape:label="Layer 1"
     inkscape:groupmode="layer"
     id="layer1">
    <path
       id="path4"
       style="fill:#005500;fill-opacity:0.42262;stroke:none;stroke-width:1.05833;stroke-dasharray:none;stroke-opacity:1"
       d="M 33.81058,33.657388 C 54.666147,28.069155 44.986661,11.986187 42.302011,1.9669376 34.96741,9.3015369 18.543246,18.390053 33.81058,33.657388"
       inkscape:transform-center-y="-15.845225"
       sodipodi:nodetypes="ccc"
       inkscape:transform-center-x="-3.3968149" />
    <path
       id="path1"
       style="fill:#005500;fill-opacity:0.42262;stroke:none;stroke-width:1.05833;stroke-dasharray:none;stroke-opacity:1"
       d="M 33.81058,33.657388 C 54.666147,39.245619 54.324951,20.477618 57.0096,10.458369 46.99035,13.143017 28.222348,12.801821 33.81058,33.657388"
       inkscape:transform-center-y="-11.090231"
       sodipodi:nodetypes="ccc"
       inkscape:transform-center-x="-11.090231" />
    <path
       id="path2"
       style="fill:#005500;fill-opacity:0.42262;stroke:none;stroke-width:1.05833;stroke-dasharray:none;stroke-opacity:1"
       d="M 33.81058,33.657388 C 49.077915,48.924722 58.166431,32.500557 65.501031,25.165958 55.481781,22.481307 39.398813,12.801821 33.81058,33.657388"
       inkscape:transform-center-y="-3.396815"
       sodipodi:nodetypes="ccc"
       inkscape:transform-center-x="-15.845225" />
    <path
       id="path3"
       style="fill:#005500;fill-opacity:0.42262;stroke:none;stroke-width:1.05833;stroke-dasharray:none;stroke-opacity:1"
       d="m 33.81058,33.657388 c 5.588233,20.855566 21.671202,11.17608 31.690451,8.491431 -7.3346,-7.334601 -16.423115,-23.758766 -31.690451,-8.491431"
       sodipodi:nodetypes="ccc"
       inkscape:transform-center-x="-15.845225"
       inkscape:transform-center-y="3.3968149" />
    <path
       id="path5"
       style="fill:#005500;fill-opacity:0.42262;stroke:none;stroke-width:1.05833;stroke-dasharray:none;stroke-opacity:1"
       d="M 33.81058,33.657388 C 28.222348,54.512954 46.990351,54.171758 57.0096,56.856408 54.324951,46.837158 54.666148,28.069156 33.81058,33.657388"
       sodipodi:nodetypes="ccc"
       inkscape:transform-center-x="-11.090231"
       inkscape:transform-center-y="11.090232" />
    <path
       id="path6"
       style="fill:#005500;fill-opacity:0.42262;stroke:none;stroke-width:1.05833;stroke-dasharray:none;stroke-opacity:1"
       d="m 33.81058,33.657388 c -15.267335,15.267334 1.156832,24.355851 8.491431,31.69045 2.68465,-10.01925 12.364137,-26.102217 -8.491431,-31.69045"
       sodipodi:nodetypes="ccc"
       inkscape:transform-center-x="-3.3968149"
       inkscape:transform-center-y="15.845225" />
    <path
       id="path7"
       style="fill:#005500;fill-opacity:0.42262;stroke:none;stroke-width:1.05833;stroke-dasharray:none;stroke-opacity:1"
       d="m 33.81058,33.657388 c -20.855566,5.588232 -11.176079,21.671201 -8.49143,31.69045 7.334601,-7.3346 23.758766,-16.423115 8.49143,-31.69045"
       sodipodi:nodetypes="ccc"
       inkscape:transform-center-y="15.845225"
       inkscape:transform-center-x="3.3968148" />
    <path
       id="path8"
       style="fill:#005500;fill-opacity:0.42262;stroke:none;stroke-width:1.05833;stroke-dasharray:none;stroke-opacity:1"
       d="M 33.81058,33.657388 C 12.955015,28.069155 13.296211,46.837158 10.611561,56.856408 20.630811,54.171758 39.398813,54.512955 33.81058,33.657388"
       sodipodi:nodetypes="ccc"
       inkscape:transform-center-y="11.090231"
       inkscape:transform-center-x="11.090232" />
    <path
       id="path10"
       style="fill:#005500;fill-opacity:0.42262;stroke:none;stroke-width:1.05833;stroke-dasharray:none;stroke-opacity:1"
       d="M 33.81058,33.657388 C 18.543247,18.390054 9.4547305,34.814219 2.120131,42.148819 c 10.01925,2.68465 26.102217,12.364136 31.690449,-8.491431"
       sodipodi:nodetypes="ccc"
       inkscape:transform-center-y="3.3968151"
       inkscape:transform-center-x="15.845225" />
    <path
       id="path12"
       style="fill:#005500;fill-opacity:0.42262;stroke:none;stroke-width:1.05833;stroke-dasharray:none;stroke-opacity:1"
       d="m 33.81058,33.657388 c -5.588231,-20.855566 -21.6712,-11.17608 -31.690449,-8.49143 7.3346,7.3346 16.423115,23.758765 31.690449,8.49143"
       sodipodi:nodetypes="ccc"
       inkscape:transform-center-x="15.845225"
       inkscape:transform-center-y="-3.3968149" />
    <path
       id="path13"
       style="fill:#005500;fill-opacity:0.42262;stroke:none;stroke-width:1.05833;stroke-dasharray:none;stroke-opacity:1"
       d="M 33.81058,33.657388 C 39.398813,12.801823 20.630811,13.143018 10.611562,10.458369 13.296211,20.47762 12.955014,39.245621 33.81058,33.657388"
       sodipodi:nodetypes="ccc"
       inkscape:transform-center-x="11.090231"
       inkscape:transform-center-y="-11.090231" />
    <path
       id="path14"
       style="fill:#005500;fill-opacity:0.42262;stroke:none;stroke-width:1.05833;stroke-dasharray:none;stroke-opacity:1"
       d="M 33.81058,33.657388 C 49.077914,18.390055 32.65375,9.3015378 25.31915,1.9669386 22.634499,11.986189 12.955014,28.069156 33.81058,33.657388"
       sodipodi:nodetypes="ccc"
       inkscape:transform-center-x="3.3968152"
       inkscape:transform-center-y="-15.845225" />
    <path
       id="path11"
       style="fill:none;fill-opacity:0.42262;stroke:#000000;stroke-width:1.02526;stroke-dasharray:none;stroke-opacity:1"
       d="M 42.245935,2.1762176 C 34.911335,9.5108168 18.48717,18.599333 33.754504,33.866669 54.61007,28.278434 44.930585,12.195468 42.245935,2.1762176 Z"
       inkscape:transform-center-y="-15.845225"
       inkscape:transform-center-x="-3.3968151" />
    <path
       id="path15"
       style="fill:none;fill-opacity:0.42262;stroke:#000000;stroke-width:1.02526;stroke-dasharray:none;stroke-opacity:1"
       d="m 56.953524,10.667648 c -10.01925,2.68465 -28.787252,2.343452 -23.19902,23.199021 20.855567,5.588229 20.51437,-13.179771 23.19902,-23.199021 z"
       inkscape:transform-center-y="-11.090232"
       inkscape:transform-center-x="-11.090232" />
    <path
       id="path16"
       style="fill:none;fill-opacity:0.42262;stroke:#000000;stroke-width:1.02526;stroke-dasharray:none;stroke-opacity:1"
       d="M 65.444954,25.375238 C 55.425704,22.690587 39.342737,13.0111 33.754504,33.866669 49.02184,49.134 58.110355,32.709837 65.444954,25.375238 Z"
       inkscape:transform-center-y="-3.3968155"
       inkscape:transform-center-x="-15.845226" />
    <path
       id="path17"
       style="fill:none;fill-opacity:0.42262;stroke:#000000;stroke-width:1.02526;stroke-dasharray:none;stroke-opacity:1"
       d="m 65.444954,42.358099 c -7.3346,-7.334601 -16.423115,-23.758766 -31.69045,-8.49143 5.588234,20.855565 21.6712,11.17608 31.69045,8.49143 z"
       inkscape:transform-center-x="-15.845225"
       inkscape:transform-center-y="3.3968155" />
    <path
       id="path18"
       style="fill:none;fill-opacity:0.42262;stroke:#000000;stroke-width:1.02526;stroke-dasharray:none;stroke-opacity:1"
       d="m 56.953524,57.065688 c -2.684651,-10.01925 -2.343452,-28.787252 -23.199021,-23.19902 -5.58823,20.855567 13.179771,20.51437 23.199021,23.19902 z"
       inkscape:transform-center-x="-11.090231"
       inkscape:transform-center-y="11.090232" />
    <path
       id="path19"
       style="fill:none;fill-opacity:0.42262;stroke:#000000;stroke-width:1.02526;stroke-dasharray:none;stroke-opacity:1"
       d="m 42.245934,65.557118 c 2.68465,-10.01925 12.364137,-26.102217 -8.491431,-31.69045 -15.267333,15.267336 1.156832,24.355851 8.491431,31.69045 z"
       inkscape:transform-center-x="-3.3968145"
       inkscape:transform-center-y="15.845226" />
    <path
       id="path20"
       style="fill:none;fill-opacity:0.42262;stroke:#000000;stroke-width:1.02526;stroke-dasharray:none;stroke-opacity:1"
       d="m 25.263073,65.557117 c 7.3346,-7.334599 23.758765,-16.423114 8.49143,-31.690449 -20.855566,5.588234 -11.17608,21.6712 -8.49143,31.690449 z"
       inkscape:transform-center-y="15.845226"
       inkscape:transform-center-x="3.3968155" />
    <path
       id="path21"
       style="fill:none;fill-opacity:0.42262;stroke:#000000;stroke-width:1.02526;stroke-dasharray:none;stroke-opacity:1"
       d="M 10.555484,57.065687 C 20.574733,54.381037 39.342735,54.722235 33.754502,33.866668 12.898936,28.278437 13.240134,47.046438 10.555484,57.065687 Z"
       inkscape:transform-center-y="11.090232"
       inkscape:transform-center-x="11.090232" />
    <path
       id="path22"
       style="fill:none;fill-opacity:0.42262;stroke:#000000;stroke-width:1.02526;stroke-dasharray:none;stroke-opacity:1"
       d="M 2.0640536,42.358098 C 12.083303,45.042748 28.166269,54.722234 33.754502,33.866667 18.487167,18.599334 9.3986532,35.023498 2.0640536,42.358098 Z"
       inkscape:transform-center-y="3.3968156"
       inkscape:transform-center-x="15.845226" />
    <path
       id="path23"
       style="fill:none;fill-opacity:0.42262;stroke:#000000;stroke-width:1.02526;stroke-dasharray:none;stroke-opacity:1"
       d="M 2.0640535,25.375237 C 9.3986531,32.709836 18.487167,49.134001 33.754502,33.866666 28.166269,13.011101 12.083303,22.690587 2.0640535,25.375237 Z"
       inkscape:transform-center-x="15.845226"
       inkscape:transform-center-y="-3.3968151" />
    <path
       id="path24"
       style="fill:none;fill-opacity:0.42262;stroke:#000000;stroke-width:1.02526;stroke-dasharray:none;stroke-opacity:1"
       d="m 10.555484,10.667648 c 2.68465,10.019249 2.343452,28.78725 23.199019,23.199017 C 39.342734,13.0111 20.574733,13.352298 10.555484,10.667648 Z"
       inkscape:transform-center-x="11.090232"
       inkscape:transform-center-y="-11.090232" />
    <path
       id="path25"
       style="fill:none;fill-opacity:0.42262;stroke:#000000;stroke-width:1.02526;stroke-dasharray:none;stroke-opacity:1"
       d="M 25.263073,2.1762171 C 22.578423,12.195467 12.898937,28.278433 33.754504,33.866665 49.021837,18.599331 32.597673,9.5108169 25.263073,2.1762171 Z"
       inkscape:transform-center-x="3.3968154"
       inkscape:transform-center-y="-15.845226" />
  </g>
  <metadata
     id="metadata13">
    <rdf:RDF>
      <cc:Work
         rdf:about="">
        <cc:license
           rdf:resource="http://creativecommons.org/licenses/by-sa/4.0/" />
        <dc:title>Heart Chakra Lotus Flower</dc:title>
        <dc:creator>
          <cc:Agent>
            <dc:title>Nicco Kunzmann</dc:title>
          </cc:Agent>
        </dc:creator>
        <dc:date>2024</dc:date>
        <dc:rights>
          <cc:Agent>
            <dc:title>Nicco Kunzmann</dc:title>
          </cc:Agent>
        </dc:rights>
      </cc:Work>
      <cc:License
         rdf:about="http://creativecommons.org/licenses/by-sa/4.0/">
        <cc:permits
           rdf:resource="http://creativecommons.org/ns#Reproduction" />
        <cc:permits
           rdf:resource="http://creativecommons.org/ns#Distribution" />
        <cc:requires
           rdf:resource="http://creativecommons.org/ns#Notice" />
        <cc:requires
           rdf:resource="http://creativecommons.org/ns#Attribution" />
        <cc:permits
           rdf:resource="http://creativecommons.org/ns#DerivativeWorks" />
        <cc:requires
           rdf:resource="http://creativecommons.org/ns#ShareAlike" />
      </cc:License>
    </rdf:RDF>
  </metadata>
</svg>
