<?xml version="1.0" encoding="UTF-8" standalone="no"?>
<!-- Created with Inkscape (http://www.inkscape.org/) -->

<svg
   width="256"
   height="256"
   viewBox="0 0 67.733332 67.733333"
   version="1.1"
   id="svg1"
   inkscape:version="1.3.2 (1:1.3.2+202311252150+091e20ef0f)"
   sodipodi:docname="root.svg"
   xmlns:inkscape="http://www.inkscape.org/namespaces/inkscape"
   xmlns:sodipodi="http://sodipodi.sourceforge.net/DTD/sodipodi-0.dtd"
   xmlns:xlink="http://www.w3.org/1999/xlink"
   xmlns="http://www.w3.org/2000/svg"
   xmlns:svg="http://www.w3.org/2000/svg"
   xmlns:rdf="http://www.w3.org/1999/02/22-rdf-syntax-ns#"
   xmlns:cc="http://creativecommons.org/ns#"
   xmlns:dc="http://purl.org/dc/elements/1.1/">
  <title
     id="title13">Root Chakra Lotus Flower</title>
  <sodipodi:namedview
     id="namedview1"
     pagecolor="#505050"
     bordercolor="#eeeeee"
     borderopacity="1"
     inkscape:showpageshadow="0"
     inkscape:pageopacity="0"
     inkscape:pagecheckerboard="0"
     inkscape:deskcolor="#505050"
     inkscape:document-units="px"
     inkscape:zoom="1.6231341"
     inkscape:cx="81.940241"
     inkscape:cy="212.8598"
     inkscape:window-width="1920"
     inkscape:window-height="1149"
     inkscape:window-x="0"
     inkscape:window-y="25"
     inkscape:window-maximized="1"
     inkscape:current-layer="layer1" />
  <defs
     id="defs1">
    <linearGradient
       id="linearGradient1"
       inkscape:collect="always">
      <stop
         style="stop-color:#bc0000;stop-opacity:1;"
         offset="0"
         id="stop1" />
      <stop
         style="stop-color:#ff8b8b;stop-opacity:0.47970077;"
         offset="1"
         id="stop2" />
    </linearGradient>
    <radialGradient
       inkscape:collect="always"
       xlink:href="#linearGradient1"
       id="radialGradient5"
       cx="35.532173"
       cy="32.16547"
       fx="35.532173"
       fy="32.16547"
       r="12.108788"
       gradientUnits="userSpaceOnUse"
       gradientTransform="matrix(1.5079957,0,0,1.5079957,-18.050191,-16.339921)" />
    <radialGradient
       inkscape:collect="always"
       xlink:href="#linearGradient1"
       id="radialGradient6"
       gradientUnits="userSpaceOnUse"
       gradientTransform="matrix(0,1.5079957,-1.5079957,0,84.073252,-18.050178)"
       cx="35.532173"
       cy="32.16547"
       fx="35.532173"
       fy="32.16547"
       r="12.108788" />
    <radialGradient
       inkscape:collect="always"
       xlink:href="#linearGradient1"
       id="radialGradient7"
       gradientUnits="userSpaceOnUse"
       gradientTransform="matrix(-1.5079957,0,0,-1.5079957,85.783509,84.073265)"
       cx="35.532173"
       cy="32.16547"
       fx="35.532173"
       fy="32.16547"
       r="12.108788" />
    <radialGradient
       inkscape:collect="always"
       xlink:href="#linearGradient1"
       id="radialGradient8"
       gradientUnits="userSpaceOnUse"
       gradientTransform="matrix(0,-1.5079957,1.5079957,0,-16.339934,85.783522)"
       cx="35.532173"
       cy="32.16547"
       fx="35.532173"
       fy="32.16547"
       r="12.108788" />
  </defs>
  <g
     inkscape:label="Layer 1"
     inkscape:groupmode="layer"
     id="layer1">
    <path
       id="path9"
       style="fill:#ff0000;fill-opacity:1;stroke-width:4.61367"
       d="m 33.895196,1.0583413 a 32.808332,32.808332 0 0 0 -0.770948,0.054566 32.808332,32.808332 0 0 0 -2.328362,0.1642025 32.808332,32.808332 0 0 0 -2.320853,0.2738364 32.808332,32.808332 0 0 0 -2.277801,0.4931061 32.808332,32.808332 0 0 0 -2.262781,0.6022405 32.808332,32.808332 0 0 0 -2.187189,0.812499 32.808332,32.808332 0 0 0 -2.14714,0.9146246 32.808332,32.808332 0 0 0 -2.056028,1.1193758 32.808332,32.808332 0 0 0 -1.99345,1.209487 32.808332,32.808332 0 0 0 -1.869298,1.3947147 32.808332,32.808332 0 0 0 -1.808223,1.4868278 32.808332,32.808332 0 0 0 -1.649528,1.644021 32.808332,32.808332 0 0 0 -1.579441,1.729126 32.808332,32.808332 0 0 0 -1.4007223,1.864291 32.808332,32.808332 0 0 0 -1.3151165,1.932877 32.808332,32.808332 0 0 0 -0.4335327,0.637784 32.808332,32.808332 0 0 0 -0.6878464,1.406228 32.808332,32.808332 0 0 0 -1.0277635,2.102585 32.808332,32.808332 0 0 0 -0.818506,2.17968 32.808332,32.808332 0 0 0 -0.7198845,2.231243 32.808332,32.808332 0 0 0 -0.4996139,2.273795 32.808332,32.808332 0 0 0 -0.3949863,2.305334 32.808332,32.808332 0 0 0 -0.1722117,2.329864 32.808332,32.808332 0 0 0 -0.1156419,1.564424 32.808332,32.808332 0 0 0 0.053065,0.770947 32.808332,32.808332 0 0 0 0.1606972,2.328864 32.808332,32.808332 0 0 0 0.2703321,2.320852 32.808332,32.808332 0 0 0 0.489102,2.279803 32.808332,32.808332 0 0 0 0.5977346,2.259778 32.808332,32.808332 0 0 0 0.8109964,2.194698 32.808332,32.808332 0 0 0 0.9106203,2.146139 32.808332,32.808332 0 0 0 1.1143693,2.055025 32.808332,32.808332 0 0 0 1.2074848,1.996956 32.808332,32.808332 0 0 0 1.3932125,1.873803 32.808332,32.808332 0 0 0 1.4803197,1.806721 32.808332,32.808332 0 0 0 1.6475253,1.658539 32.808332,32.808332 0 0 0 1.719614,1.575938 32.808332,32.808332 0 0 0 1.8708,1.410234 32.808332,32.808332 0 0 0 1.920862,1.311111 32.808332,32.808332 0 0 0 0.640787,0.437538 l 0.03755,-0.06408 a 32.808332,32.808332 0 0 0 0.186229,0.102626 l -0.03905,0.06808 a 32.808332,32.808332 0 0 0 1.319622,0.637284 32.808332,32.808332 0 0 0 2.09808,1.013245 32.808332,32.808332 0 0 0 2.189691,0.826016 32.808332,32.808332 0 0 0 2.221231,0.704866 32.808332,32.808332 0 0 0 2.28531,0.506622 32.808332,32.808332 0 0 0 2.298826,0.38147 32.808332,32.808332 0 0 0 2.332367,0.176217 32.808332,32.808332 0 0 0 1.45579,0.110135 l 5e-4,-0.0781 a 32.808332,32.808332 0 0 0 0.213262,0.0045 v 0.07409 a 32.808332,32.808332 0 0 0 1.506853,-0.04105 32.808332,32.808332 0 0 0 0.05257,-10e-4 32.808332,32.808332 0 0 0 4.543585,-0.551177 32.808332,32.808332 0 0 0 0.127156,-0.02253 32.808332,32.808332 0 0 0 4.355855,-1.174444 32.808332,32.808332 0 0 0 0.185728,-0.06208 32.808332,32.808332 0 0 0 4.097538,-1.761666 32.808332,32.808332 0 0 0 0.215765,-0.109134 32.808332,32.808332 0 0 0 3.777143,-2.308839 32.808332,32.808332 0 0 0 0.218769,-0.15469 32.808332,32.808332 0 0 0 3.397677,-2.811456 32.808332,32.808332 0 0 0 0.201248,-0.192236 32.808332,32.808332 0 0 0 2.962642,-3.265014 32.808332,32.808332 0 0 0 0.167707,-0.215265 32.808332,32.808332 0 0 0 2.476544,-3.666007 32.808332,32.808332 0 0 0 0.06007,-0.08911 32.808332,32.808332 0 0 0 0.261321,-0.47959 32.808332,32.808332 0 0 0 0.38297,-0.704366 32.808332,32.808332 0 0 0 0.362446,-0.721887 32.808332,32.808332 0 0 0 0.348929,-0.724391 32.808332,32.808332 0 0 0 0.317891,-0.719885 32.808332,32.808332 0 0 0 0.323898,-0.76494 32.808332,32.808332 0 0 0 0.279344,-0.726894 32.808332,32.808332 0 0 0 0.281846,-0.768945 32.808332,32.808332 0 0 0 0.253311,-0.770447 32.808332,32.808332 0 0 0 0.236291,-0.757932 32.808332,32.808332 0 0 0 0.215765,-0.783463 32.808332,32.808332 0 0 0 0.199245,-0.770447 32.808332,32.808332 0 0 0 0.177719,-0.793976 32.808332,32.808332 0 0 0 0.161198,-0.779458 32.808332,32.808332 0 0 0 0.137669,-0.798983 32.808332,32.808332 0 0 0 0.123652,-0.789971 32.808332,32.808332 0 0 0 0.09712,-0.790472 32.808332,32.808332 0 0 0 0.08661,-0.814501 32.808332,32.808332 0 0 0 0.05657,-0.775453 32.808332,32.808332 0 0 0 0.04756,-0.833525 32.808332,32.808332 0 0 0 0.01852,-0.779458 32.808332,32.808332 0 0 0 0.01302,-0.558687 32.808332,32.808332 0 0 0 -0.008,-0.108133 32.808332,32.808332 0 0 0 -0.318892,-4.415428 32.808332,32.808332 0 0 0 -0.03655,-0.263324 32.808332,32.808332 0 0 0 -0.939655,-4.309297 32.808332,32.808332 0 0 0 -0.0796,-0.269832 32.808332,32.808332 0 0 0 -1.542396,-4.129577 32.808332,32.808332 0 0 0 -0.112639,-0.2438 32.808332,32.808332 0 0 0 -2.124625,-3.888258 32.808332,32.808332 0 0 0 -0.128658,-0.196242 32.808332,32.808332 0 0 0 -2.673787,-3.57089 A 32.808332,32.808332 0 0 0 58.576037,12.296156 32.808332,32.808332 0 0 0 55.38962,9.109739 32.808332,32.808332 0 0 0 55.288996,9.0256359 32.808332,32.808332 0 0 0 51.623991,6.2807614 32.808332,32.808332 0 0 0 51.584943,6.2567314 32.808332,32.808332 0 0 0 50.295357,5.467762 32.808332,32.808332 0 0 0 48.881619,4.7794158 32.808332,32.808332 0 0 0 46.786544,3.7591615 32.808332,32.808332 0 0 0 44.595351,2.940655 32.808332,32.808332 0 0 0 42.37412,2.2282792 32.808332,32.808332 0 0 0 40.08881,1.7296664 32.808332,32.808332 0 0 0 37.789984,1.3401877 32.808332,32.808332 0 0 0 35.46012,1.1714799 32.808332,32.808332 0 0 0 33.895196,1.0583413 Z"
       inkscape:label="circle" />
    <path
       id="path5"
       style="fill:url(#radialGradient6);fill-opacity:1;stroke:none;stroke-width:1.05833;stroke-dasharray:none;stroke-opacity:1"
       d="m 57.065677,57.065691 c -2.68465,-10.01925 -2.343453,-28.787252 -23.19902,-23.199019 -5.588231,20.855566 13.17977,20.51437 23.19902,23.199019 z"
       inkscape:transform-center-x="-11.09023"
       inkscape:transform-center-y="11.090231" />
    <path
       id="path6"
       style="fill:url(#radialGradient5);fill-opacity:1;stroke:none;stroke-width:1.05833;stroke-dasharray:none;stroke-opacity:1"
       d="m 57.065678,10.667654 c -10.01925,2.68465 -28.787252,2.343453 -23.199019,23.19902 20.855566,5.588231 20.51437,-13.17977 23.199019,-23.19902 z"
       inkscape:transform-center-x="-11.090231"
       inkscape:transform-center-y="-11.09023" />
    <path
       id="path7"
       style="fill:url(#radialGradient7);fill-opacity:1;stroke:none;stroke-width:1.05833;stroke-dasharray:none;stroke-opacity:1"
       d="M 10.66764,57.06569 C 20.68689,54.38104 39.454892,54.722237 33.866659,33.86667 13.011093,28.278439 13.352289,47.04644 10.66764,57.06569 Z"
       inkscape:transform-center-x="11.090231"
       inkscape:transform-center-y="11.09023" />
    <path
       id="path8"
       style="fill:url(#radialGradient8);fill-opacity:1;stroke:none;stroke-width:1.05833;stroke-dasharray:none;stroke-opacity:1"
       d="m 10.667641,10.667653 c 2.68465,10.01925 2.343453,28.787252 23.19902,23.199019 5.588231,-20.855566 -13.17977,-20.51437 -23.19902,-23.199019 z"
       inkscape:transform-center-x="11.09023"
       inkscape:transform-center-y="-11.090231" />
    <g
       id="g13"
       style="stroke:#000000;stroke-opacity:1;fill:none"
       inkscape:label="leaf-outline">
      <path
         id="path10"
         style="fill:none;fill-opacity:0.42262;stroke:#000000;stroke-width:1.02526;stroke-dasharray:none;stroke-opacity:1"
         d="M 10.667641,57.065691 C 20.686891,54.381042 39.454893,54.722238 33.866661,33.866672 13.011094,28.27844 13.352291,47.046441 10.667641,57.065691 Z"
         inkscape:transform-center-x="11.09023"
         inkscape:transform-center-y="11.090231" />
      <path
         id="path11"
         style="fill:none;fill-opacity:0.42262;stroke:#000000;stroke-width:1.02526;stroke-dasharray:none;stroke-opacity:1"
         d="m 10.667641,10.667654 c 2.68465,10.01925 2.343453,28.787252 23.19902,23.19902 5.588231,-20.855567 -13.17977,-20.51437 -23.19902,-23.19902 z" />
      <path
         id="path12"
         style="fill:none;fill-opacity:0.42262;stroke:#000000;stroke-width:1.02526;stroke-dasharray:none;stroke-opacity:1"
         d="m 57.065678,10.667654 c -10.01925,2.68465 -28.787252,2.343453 -23.199019,23.19902 20.855566,5.588231 20.51437,-13.17977 23.199019,-23.19902 z"
         inkscape:transform-center-x="-11.090231"
         inkscape:transform-center-y="-11.09023" />
      <path
         id="path13"
         style="fill:none;fill-opacity:0.42262;stroke:#000000;stroke-width:1.02526;stroke-dasharray:none;stroke-opacity:1"
         d="M 57.065678,57.065691 C 54.381029,47.046441 54.722225,28.278439 33.866659,33.866672 28.278427,54.722238 47.046428,54.381042 57.065678,57.065691 Z"
         inkscape:transform-center-x="-11.090231"
         inkscape:transform-center-y="11.090231" />
    </g>
  </g>
  <metadata
     id="metadata13">
    <rdf:RDF>
      <cc:Work
         rdf:about="">
        <cc:license
           rdf:resource="http://creativecommons.org/licenses/by-sa/4.0/" />
        <dc:title>Root Chakra Lotus Flower</dc:title>
        <dc:creator>
          <cc:Agent>
            <dc:title>Nicco Kunzmann</dc:title>
          </cc:Agent>
        </dc:creator>
        <dc:date>2024</dc:date>
      </cc:Work>
      <cc:License
         rdf:about="http://creativecommons.org/licenses/by-sa/4.0/">
        <cc:permits
           rdf:resource="http://creativecommons.org/ns#Reproduction" />
        <cc:permits
           rdf:resource="http://creativecommons.org/ns#Distribution" />
        <cc:requires
           rdf:resource="http://creativecommons.org/ns#Notice" />
        <cc:requires
           rdf:resource="http://creativecommons.org/ns#Attribution" />
        <cc:permits
           rdf:resource="http://creativecommons.org/ns#DerivativeWorks" />
        <cc:requires
           rdf:resource="http://creativecommons.org/ns#ShareAlike" />
      </cc:License>
    </rdf:RDF>
  </metadata>
</svg>
