<?xml version="1.0" encoding="UTF-8" standalone="no"?>
<!-- Created with Inkscape (http://www.inkscape.org/) -->

<svg
   width="256"
   height="256"
   viewBox="0 0 67.733332 67.733333"
   version="1.1"
   id="svg1"
   inkscape:version="1.3.2 (1:1.3.2+202311252150+091e20ef0f)"
   sodipodi:docname="sacral.svg"
   xmlns:inkscape="http://www.inkscape.org/namespaces/inkscape"
   xmlns:sodipodi="http://sodipodi.sourceforge.net/DTD/sodipodi-0.dtd"
   xmlns:xlink="http://www.w3.org/1999/xlink"
   xmlns="http://www.w3.org/2000/svg"
   xmlns:svg="http://www.w3.org/2000/svg"
   xmlns:rdf="http://www.w3.org/1999/02/22-rdf-syntax-ns#"
   xmlns:cc="http://creativecommons.org/ns#"
   xmlns:dc="http://purl.org/dc/elements/1.1/">
  <title
     id="title13">Sacral Chakra Lotus Flower</title>
  <sodipodi:namedview
     id="namedview1"
     pagecolor="#505050"
     bordercolor="#eeeeee"
     borderopacity="1"
     inkscape:showpageshadow="0"
     inkscape:pageopacity="0"
     inkscape:pagecheckerboard="0"
     inkscape:deskcolor="#505050"
     inkscape:document-units="px"
     inkscape:zoom="2.3872359"
     inkscape:cx="73.306538"
     inkscape:cy="75.610458"
     inkscape:window-width="1920"
     inkscape:window-height="1149"
     inkscape:window-x="0"
     inkscape:window-y="25"
     inkscape:window-maximized="1"
     inkscape:current-layer="layer1" />
  <defs
     id="defs1">
    <linearGradient
       id="linearGradient1"
       inkscape:collect="always">
      <stop
         style="stop-color:#b14400;stop-opacity:1;"
         offset="0"
         id="stop1" />
      <stop
         style="stop-color:#ffc19b;stop-opacity:1;"
         offset="1"
         id="stop2" />
    </linearGradient>
    <radialGradient
       inkscape:collect="always"
       xlink:href="#linearGradient1"
       id="radialGradient2"
       cx="33.823128"
       cy="26.678665"
       fx="33.823128"
       fy="26.678665"
       r="9.5872213"
       gradientTransform="matrix(1,0,0,1.7110468,0,-12.262585)"
       gradientUnits="userSpaceOnUse" />
  </defs>
  <g
     inkscape:groupmode="layer"
     id="layer2"
     inkscape:label="background">
    <path
       id="path9"
       style="fill:#ff6600;fill-opacity:0.99992979;stroke-width:4.61367"
       d="m 65.576681,42.376085 a 32.808332,32.808332 0 0 0 0.14683,-0.758802 32.808332,32.808332 0 0 0 0.444016,-2.291523 32.808332,32.808332 0 0 0 0.336175,-2.312646 32.808332,32.808332 0 0 0 0.113235,-2.327813 32.808332,32.808332 0 0 0 0.0039,-2.341549 32.808332,32.808332 0 0 0 -0.218728,-2.322953 32.808332,32.808332 0 0 0 -0.327738,-2.3107 A 32.808332,32.808332 0 0 0 65.525307,25.434412 32.808332,32.808332 0 0 0 64.872975,23.19585 32.808332,32.808332 0 0 0 64.009594,21.029267 32.808332,32.808332 0 0 0 63.041431,18.897839 32.808332,32.808332 0 0 0 61.880355,16.879016 32.808332,32.808332 0 0 0 60.618936,14.905861 32.808332,32.808332 0 0 0 59.180703,13.070354 32.808332,32.808332 0 0 0 57.654065,11.299783 32.808332,32.808332 0 0 0 57.150219,10.715953 32.808332,32.808332 0 0 0 55.969935,9.6875854 32.808332,32.808332 0 0 0 54.204999,8.1506529 32.808332,32.808332 0 0 0 52.311434,6.7958935 32.808332,32.808332 0 0 0 50.342539,5.5230509 32.808332,32.808332 0 0 0 48.275531,4.4519596 32.808332,32.808332 0 0 0 46.150979,3.4737675 32.808332,32.808332 0 0 0 43.945075,2.7044102 32.808332,32.808332 0 0 0 42.463887,2.1878062 32.808332,32.808332 0 0 0 41.705476,2.0395273 32.808332,32.808332 0 0 0 39.414375,1.5919951 32.808332,32.808332 0 0 0 37.102637,1.2524344 32.808332,32.808332 0 0 0 34.773927,1.1348144 32.808332,32.808332 0 0 0 32.436443,1.1273084 32.808332,32.808332 0 0 0 30.106628,1.342641 32.808332,32.808332 0 0 0 27.79793,1.6667712 32.808332,32.808332 0 0 0 25.524508,2.2112895 32.808332,32.808332 0 0 0 23.283077,2.8607802 32.808332,32.808332 0 0 0 21.112533,3.7215437 32.808332,32.808332 0 0 0 18.98424,4.683809 a 32.808332,32.808332 0 0 0 -2.028438,1.1621241 32.808332,32.808332 0 0 0 -1.967308,1.2531365 32.808332,32.808332 0 0 0 -1.846381,1.4420592 32.808332,32.808332 0 0 0 -1.763591,1.5160692 32.808332,32.808332 0 0 0 -0.588477,0.50571 l 0.05218,0.05285 a 32.808332,32.808332 0 0 0 -0.147329,0.153322 l -0.05565,-0.05534 A 32.808332,32.808332 0 0 0 9.6821296,11.823455 32.808332,32.808332 0 0 0 8.1603869,13.587798 32.808332,32.808332 0 0 0 6.7957833,15.489088 32.808332,32.808332 0 0 0 5.5400378,17.4522 32.808332,32.808332 0 0 0 4.4591969,19.528516 32.808332,32.808332 0 0 0 3.4957455,21.65028 32.808332,32.808332 0 0 0 2.7218717,23.857565 32.808332,32.808332 0 0 0 2.2387033,25.235245 l 0.07531,0.0207 a 32.808332,32.808332 0 0 0 -0.059543,0.204831 l -0.071568,-0.01917 a 32.808332,32.808332 0 0 0 -0.3503504,1.466133 32.808332,32.808332 0 0 0 -0.012642,0.05104 32.808332,32.808332 0 0 0 -0.6435706,4.531422 32.808332,32.808332 0 0 0 -0.011146,0.128654 32.808332,32.808332 0 0 0 0.00705,4.511401 32.808332,32.808332 0 0 0 0.011897,0.195466 32.808332,32.808332 0 0 0 0.6411179,4.41387 32.808332,32.808332 0 0 0 0.049571,0.236659 32.808332,32.808332 0 0 0 1.2525715,4.246011 32.808332,32.808332 0 0 0 0.092798,0.251352 32.808332,32.808332 0 0 0 1.8362743,4.009562 32.808332,32.808332 0 0 0 0.1335754,0.244158 32.808332,32.808332 0 0 0 2.3869733,3.706741 32.808332,32.808332 0 0 0 0.1645249,0.217707 32.808332,32.808332 0 0 0 2.9001134,3.340989 32.808332,32.808332 0 0 0 0.07052,0.08109 32.808332,32.808332 0 0 0 0.395614,0.376544 32.808332,32.808332 0 0 0 0.581245,0.552224 32.808332,32.808332 0 0 0 0.603481,0.536934 32.808332,32.808332 0 0 0 0.6094,0.524526 32.808332,32.808332 0 0 0 0.613078,0.493378 32.808332,32.808332 0 0 0 0.655044,0.510843 32.808332,32.808332 0 0 0 0.629828,0.457959 32.808332,32.808332 0 0 0 0.669799,0.471256 32.808332,32.808332 0 0 0 0.678634,0.444083 32.808332,32.808332 0 0 0 0.670951,0.424405 32.808332,32.808332 0 0 0 0.700942,0.411155 32.808332,32.808332 0 0 0 0.692601,0.391906 32.808332,32.808332 0 0 0 0.720923,0.377162 32.808332,32.808332 0 0 0 0.711176,0.357446 32.808332,32.808332 0 0 0 0.736125,0.339774 32.808332,32.808332 0 0 0 0.731049,0.323899 32.808332,32.808332 0 0 0 0.738402,0.298399 32.808332,32.808332 0 0 0 0.764331,0.294468 32.808332,32.808332 0 0 0 0.734389,0.255344 32.808332,32.808332 0 0 0 0.792813,0.261671 32.808332,32.808332 0 0 0 0.748105,0.219628 32.808332,32.808332 0 0 0 0.53628,0.157176 32.808332,32.808332 0 0 0 0.106523,0.02027 32.808332,32.808332 0 0 0 4.34751,0.834771 32.808332,32.808332 0 0 0 0.263812,0.03285 32.808332,32.808332 0 0 0 4.405662,0.207691 32.808332,32.808332 0 0 0 0.281239,-0.007 32.808332,32.808332 0 0 0 4.388067,-0.421026 32.808332,32.808332 0 0 0 0.264643,-0.0457 32.808332,32.808332 0 0 0 4.305663,-1.045876 32.808332,32.808332 0 0 0 0.222854,-0.07348 32.808332,32.808332 0 0 0 4.141242,-1.658466 32.808332,32.808332 0 0 0 0.180274,-0.09059 32.808332,32.808332 0 0 0 3.902548,-2.253137 32.808332,32.808332 0 0 0 0.107286,-0.07542 32.808332,32.808332 0 0 0 3.599918,-2.829698 32.808332,32.808332 0 0 0 0.03331,-0.03149 32.808332,32.808332 0 0 0 1.095856,-1.041446 32.808332,32.808332 0 0 0 1.030829,-1.187427 32.808332,32.808332 0 0 0 1.527734,-1.759625 32.808332,32.808332 0 0 0 1.35774,-1.904686 32.808332,32.808332 0 0 0 1.262998,-1.961167 32.808332,32.808332 0 0 0 1.073106,-2.07839 32.808332,32.808332 0 0 0 0.971187,-2.119691 32.808332,32.808332 0 0 0 0.765973,-2.206811 32.808332,32.808332 0 0 0 0.514315,-1.482317 z"
       inkscape:label="circle" />
  </g>
  <g
     inkscape:label="Layer 1"
     inkscape:groupmode="layer"
     id="layer1">
    <path
       id="path4"
       style="fill:url(#radialGradient2);fill-opacity:0.42262;stroke:none;stroke-width:1.05833;stroke-dasharray:none;stroke-opacity:1"
       d="m 33.866657,0.84163649 c -5.186346,8.98301361 -18.69859,22.01273251 0,32.80836851 18.698589,-10.795637 5.186345,-23.8253549 0,-32.80836851 z"
       inkscape:transform-center-y="-16.404184" />
    <use
       x="0"
       y="0"
       xlink:href="#path4"
       inkscape:transform-center-y="-6.8151305"
       id="use14"
       transform="rotate(60,33.679021,33.758337)"
       inkscape:transform-center-x="-14.206441" />
    <use
       x="0"
       y="0"
       xlink:href="#use14"
       inkscape:transform-center-x="-14.206441"
       inkscape:transform-center-y="6.8151316"
       id="use16"
       transform="rotate(60,33.866656,33.866668)" />
    <use
       x="0"
       y="0"
       xlink:href="#use16"
       inkscape:transform-center-y="16.404186"
       id="use18"
       transform="rotate(60,33.866656,33.866668)" />
    <use
       x="0"
       y="0"
       xlink:href="#use18"
       inkscape:transform-center-y="6.8151311"
       id="use20"
       transform="rotate(60,33.866656,33.866667)"
       inkscape:transform-center-x="14.206442" />
    <use
       x="0"
       y="0"
       xlink:href="#use20"
       inkscape:transform-center-x="14.206442"
       inkscape:transform-center-y="-6.815132"
       id="use22"
       transform="rotate(60,33.866656,33.866667)" />
    <path
       id="path11"
       style="fill:none;fill-opacity:0.42262;stroke:#000000;stroke-width:1.02526;stroke-dasharray:none;stroke-opacity:1"
       d="m 33.866657,1.0582994 c -5.186346,8.9830136 -18.69859,22.0127326 0,32.8083686 18.698589,-10.795637 5.186345,-23.825355 0,-32.8083686 z"
       inkscape:transform-center-y="-16.404184" />
    <use
       x="0"
       y="0"
       xlink:href="#path11"
       inkscape:transform-center-y="-6.8151305"
       id="use15"
       transform="rotate(60,33.866657,33.866668)"
       inkscape:transform-center-x="-14.206441" />
    <use
       x="0"
       y="0"
       xlink:href="#use15"
       inkscape:transform-center-x="-14.206441"
       inkscape:transform-center-y="6.8151316"
       id="use17"
       transform="rotate(60,33.866656,33.866668)" />
    <use
       x="0"
       y="0"
       xlink:href="#use17"
       inkscape:transform-center-y="16.404186"
       id="use19"
       transform="rotate(60,33.866656,33.866668)" />
    <use
       x="0"
       y="0"
       xlink:href="#use19"
       inkscape:transform-center-y="6.8151311"
       id="use21"
       transform="rotate(60,33.866656,33.866667)"
       inkscape:transform-center-x="14.206442" />
    <use
       x="0"
       y="0"
       xlink:href="#use21"
       inkscape:transform-center-x="14.206442"
       inkscape:transform-center-y="-6.815132"
       id="use23"
       transform="rotate(60,33.866656,33.866667)" />
  </g>
  <metadata
     id="metadata13">
    <rdf:RDF>
      <cc:Work
         rdf:about="">
        <cc:license
           rdf:resource="http://creativecommons.org/licenses/by-sa/4.0/" />
        <dc:title>Sacral Chakra Lotus Flower</dc:title>
        <dc:creator>
          <cc:Agent>
            <dc:title>Nicco Kunzmann</dc:title>
          </cc:Agent>
        </dc:creator>
        <dc:date>2024</dc:date>
        <dc:rights>
          <cc:Agent>
            <dc:title>Nicco Kunzmann</dc:title>
          </cc:Agent>
        </dc:rights>
      </cc:Work>
      <cc:License
         rdf:about="http://creativecommons.org/licenses/by-sa/4.0/">
        <cc:permits
           rdf:resource="http://creativecommons.org/ns#Reproduction" />
        <cc:permits
           rdf:resource="http://creativecommons.org/ns#Distribution" />
        <cc:requires
           rdf:resource="http://creativecommons.org/ns#Notice" />
        <cc:requires
           rdf:resource="http://creativecommons.org/ns#Attribution" />
        <cc:permits
           rdf:resource="http://creativecommons.org/ns#DerivativeWorks" />
        <cc:requires
           rdf:resource="http://creativecommons.org/ns#ShareAlike" />
      </cc:License>
    </rdf:RDF>
  </metadata>
</svg>
