<?xml version="1.0" encoding="UTF-8" standalone="no"?>
<!-- Created with Inkscape (http://www.inkscape.org/) -->

<svg
   width="256"
   height="256"
   viewBox="0 0 67.733332 67.733333"
   version="1.1"
   id="svg1"
   inkscape:version="1.3.2 (1:1.3.2+202311252150+091e20ef0f)"
   sodipodi:docname="throat.svg"
   xmlns:inkscape="http://www.inkscape.org/namespaces/inkscape"
   xmlns:sodipodi="http://sodipodi.sourceforge.net/DTD/sodipodi-0.dtd"
   xmlns="http://www.w3.org/2000/svg"
   xmlns:svg="http://www.w3.org/2000/svg"
   xmlns:rdf="http://www.w3.org/1999/02/22-rdf-syntax-ns#"
   xmlns:cc="http://creativecommons.org/ns#"
   xmlns:dc="http://purl.org/dc/elements/1.1/">
  <title
     id="title13">Throat Chakra Lotus Flower</title>
  <sodipodi:namedview
     id="namedview1"
     pagecolor="#505050"
     bordercolor="#eeeeee"
     borderopacity="1"
     inkscape:showpageshadow="0"
     inkscape:pageopacity="0"
     inkscape:pagecheckerboard="0"
     inkscape:deskcolor="#505050"
     inkscape:document-units="px"
     inkscape:zoom="1.7396253"
     inkscape:cx="124.73951"
     inkscape:cy="75.590991"
     inkscape:window-width="1920"
     inkscape:window-height="1149"
     inkscape:window-x="0"
     inkscape:window-y="25"
     inkscape:window-maximized="1"
     inkscape:current-layer="layer2" />
  <defs
     id="defs1" />
  <g
     inkscape:groupmode="layer"
     id="layer2"
     inkscape:label="background">
    <path
       id="path9"
       style="fill:#0000ff;fill-opacity:0.87159365;stroke-width:4.61367"
       d="m 65.576681,42.376085 a 32.808332,32.808332 0 0 0 0.14683,-0.758802 32.808332,32.808332 0 0 0 0.444016,-2.291523 32.808332,32.808332 0 0 0 0.336175,-2.312646 32.808332,32.808332 0 0 0 0.113235,-2.327813 32.808332,32.808332 0 0 0 0.0039,-2.341549 32.808332,32.808332 0 0 0 -0.218728,-2.322953 32.808332,32.808332 0 0 0 -0.327738,-2.3107 A 32.808332,32.808332 0 0 0 65.525307,25.434412 32.808332,32.808332 0 0 0 64.872975,23.19585 32.808332,32.808332 0 0 0 64.009594,21.029267 32.808332,32.808332 0 0 0 63.041431,18.897839 32.808332,32.808332 0 0 0 61.880355,16.879016 32.808332,32.808332 0 0 0 60.618936,14.905861 32.808332,32.808332 0 0 0 59.180703,13.070354 32.808332,32.808332 0 0 0 57.654065,11.299783 32.808332,32.808332 0 0 0 57.150219,10.715953 32.808332,32.808332 0 0 0 55.969935,9.6875854 32.808332,32.808332 0 0 0 54.204999,8.1506529 32.808332,32.808332 0 0 0 52.311434,6.7958935 32.808332,32.808332 0 0 0 50.342539,5.5230509 32.808332,32.808332 0 0 0 48.275531,4.4519596 32.808332,32.808332 0 0 0 46.150979,3.4737675 32.808332,32.808332 0 0 0 43.945075,2.7044102 32.808332,32.808332 0 0 0 42.463887,2.1878062 32.808332,32.808332 0 0 0 41.705476,2.0395273 32.808332,32.808332 0 0 0 39.414375,1.5919951 32.808332,32.808332 0 0 0 37.102637,1.2524344 32.808332,32.808332 0 0 0 34.773927,1.1348144 32.808332,32.808332 0 0 0 32.436443,1.1273084 32.808332,32.808332 0 0 0 30.106628,1.342641 32.808332,32.808332 0 0 0 27.79793,1.6667712 32.808332,32.808332 0 0 0 25.524508,2.2112895 32.808332,32.808332 0 0 0 23.283077,2.8607802 32.808332,32.808332 0 0 0 21.112533,3.7215437 32.808332,32.808332 0 0 0 18.98424,4.683809 a 32.808332,32.808332 0 0 0 -2.028438,1.1621241 32.808332,32.808332 0 0 0 -1.967308,1.2531365 32.808332,32.808332 0 0 0 -1.846381,1.4420592 32.808332,32.808332 0 0 0 -1.763591,1.5160692 32.808332,32.808332 0 0 0 -0.588477,0.50571 l 0.05218,0.05285 a 32.808332,32.808332 0 0 0 -0.147329,0.153322 l -0.05565,-0.05534 A 32.808332,32.808332 0 0 0 9.6821296,11.823455 32.808332,32.808332 0 0 0 8.1603869,13.587798 32.808332,32.808332 0 0 0 6.7957833,15.489088 32.808332,32.808332 0 0 0 5.5400378,17.4522 32.808332,32.808332 0 0 0 4.4591969,19.528516 32.808332,32.808332 0 0 0 3.4957455,21.65028 32.808332,32.808332 0 0 0 2.7218717,23.857565 32.808332,32.808332 0 0 0 2.2387033,25.235245 l 0.07531,0.0207 a 32.808332,32.808332 0 0 0 -0.059543,0.204831 l -0.071568,-0.01917 a 32.808332,32.808332 0 0 0 -0.3503504,1.466133 32.808332,32.808332 0 0 0 -0.012642,0.05104 32.808332,32.808332 0 0 0 -0.6435706,4.531422 32.808332,32.808332 0 0 0 -0.011146,0.128654 32.808332,32.808332 0 0 0 0.00705,4.511401 32.808332,32.808332 0 0 0 0.011897,0.195466 32.808332,32.808332 0 0 0 0.6411179,4.41387 32.808332,32.808332 0 0 0 0.049571,0.236659 32.808332,32.808332 0 0 0 1.2525715,4.246011 32.808332,32.808332 0 0 0 0.092798,0.251352 32.808332,32.808332 0 0 0 1.8362743,4.009562 32.808332,32.808332 0 0 0 0.1335754,0.244158 32.808332,32.808332 0 0 0 2.3869733,3.706741 32.808332,32.808332 0 0 0 0.1645249,0.217707 32.808332,32.808332 0 0 0 2.9001134,3.340989 32.808332,32.808332 0 0 0 0.07052,0.08109 32.808332,32.808332 0 0 0 0.395614,0.376544 32.808332,32.808332 0 0 0 0.581245,0.552224 32.808332,32.808332 0 0 0 0.603481,0.536934 32.808332,32.808332 0 0 0 0.6094,0.524526 32.808332,32.808332 0 0 0 0.613078,0.493378 32.808332,32.808332 0 0 0 0.655044,0.510843 32.808332,32.808332 0 0 0 0.629828,0.457959 32.808332,32.808332 0 0 0 0.669799,0.471256 32.808332,32.808332 0 0 0 0.678634,0.444083 32.808332,32.808332 0 0 0 0.670951,0.424405 32.808332,32.808332 0 0 0 0.700942,0.411155 32.808332,32.808332 0 0 0 0.692601,0.391906 32.808332,32.808332 0 0 0 0.720923,0.377162 32.808332,32.808332 0 0 0 0.711176,0.357446 32.808332,32.808332 0 0 0 0.736125,0.339774 32.808332,32.808332 0 0 0 0.731049,0.323899 32.808332,32.808332 0 0 0 0.738402,0.298399 32.808332,32.808332 0 0 0 0.764331,0.294468 32.808332,32.808332 0 0 0 0.734389,0.255344 32.808332,32.808332 0 0 0 0.792813,0.261671 32.808332,32.808332 0 0 0 0.748105,0.219628 32.808332,32.808332 0 0 0 0.53628,0.157176 32.808332,32.808332 0 0 0 0.106523,0.02027 32.808332,32.808332 0 0 0 4.34751,0.834771 32.808332,32.808332 0 0 0 0.263812,0.03285 32.808332,32.808332 0 0 0 4.405662,0.207691 32.808332,32.808332 0 0 0 0.281239,-0.007 32.808332,32.808332 0 0 0 4.388067,-0.421026 32.808332,32.808332 0 0 0 0.264643,-0.0457 32.808332,32.808332 0 0 0 4.305663,-1.045876 32.808332,32.808332 0 0 0 0.222854,-0.07348 32.808332,32.808332 0 0 0 4.141242,-1.658466 32.808332,32.808332 0 0 0 0.180274,-0.09059 32.808332,32.808332 0 0 0 3.902548,-2.253137 32.808332,32.808332 0 0 0 0.107286,-0.07542 32.808332,32.808332 0 0 0 3.599918,-2.829698 32.808332,32.808332 0 0 0 0.03331,-0.03149 32.808332,32.808332 0 0 0 1.095856,-1.041446 32.808332,32.808332 0 0 0 1.030829,-1.187427 32.808332,32.808332 0 0 0 1.527734,-1.759625 32.808332,32.808332 0 0 0 1.35774,-1.904686 32.808332,32.808332 0 0 0 1.262998,-1.961167 32.808332,32.808332 0 0 0 1.073106,-2.07839 32.808332,32.808332 0 0 0 0.971187,-2.119691 32.808332,32.808332 0 0 0 0.765973,-2.206811 32.808332,32.808332 0 0 0 0.514315,-1.482317 z"
       inkscape:label="circle" />
  </g>
  <g
     inkscape:label="Layer 1"
     inkscape:groupmode="layer"
     id="layer1">
    <path
       id="path4"
       style="fill:#000055;fill-opacity:0.42262;stroke:none;stroke-width:1.05833;stroke-dasharray:none;stroke-opacity:1"
       d="M 33.81058,33.657388 C 52.50917,22.861751 38.996926,9.8320329 33.810581,0.84901941 28.624234,9.8320328 15.111991,22.861752 33.81058,33.657388"
       inkscape:transform-center-y="-16.404184"
       sodipodi:nodetypes="ccc" />
    <path
       id="path153"
       style="fill:#000055;fill-opacity:0.42262;stroke:none;stroke-width:1.05833;stroke-dasharray:none;stroke-opacity:1"
       d="M 46.3658,3.346408 C 38.13659,9.6609012 20.666647,16.527881 33.81058,33.657388 55.217136,30.83916 47.719707,13.630359 46.3658,3.346408 Z"
       inkscape:transform-center-y="-15.15549"
       inkscape:transform-center-x="-5.0902982" />
    <path
       id="path155"
       style="fill:#000055;fill-opacity:0.42262;stroke:none;stroke-width:1.05833;stroke-dasharray:none;stroke-opacity:1"
       d="M 64.121561,21.10217 C 53.83761,19.74826 36.628806,12.250834 33.81058,33.657388 50.940089,46.80132 57.807066,29.331378 64.121561,21.10217 Z"
       inkscape:transform-center-y="-5.090298"
       inkscape:transform-center-x="-15.15549" />
    <path
       id="path156"
       style="fill:#000055;fill-opacity:0.42262;stroke:none;stroke-width:1.05833;stroke-dasharray:none;stroke-opacity:1"
       d="m 66.618949,33.657389 c -8.983013,-5.186347 -22.012734,-18.69859 -32.808369,-1e-6 10.795638,18.698589 23.825355,5.186345 32.808369,1e-6 z"
       inkscape:transform-center-x="-16.404184" />
    <path
       id="path157"
       style="fill:#000055;fill-opacity:0.42262;stroke:none;stroke-width:1.05833;stroke-dasharray:none;stroke-opacity:1"
       d="M 64.12156,46.212608 C 57.807067,37.983398 50.940086,20.513455 33.81058,33.657388 36.628809,55.063943 53.83761,47.566514 64.12156,46.212608 Z"
       inkscape:transform-center-x="-15.155489"
       inkscape:transform-center-y="5.0902982" />
    <path
       id="path158"
       style="fill:#000055;fill-opacity:0.42262;stroke:none;stroke-width:1.05833;stroke-dasharray:none;stroke-opacity:1"
       d="M 57.009599,56.856408 C 54.324951,46.837158 54.666145,28.069155 33.81058,33.657388 28.22235,54.512955 46.990351,54.171757 57.009599,56.856408 Z"
       inkscape:transform-center-x="-11.09023"
       inkscape:transform-center-y="11.090232" />
    <path
       id="path159"
       style="fill:#000055;fill-opacity:0.42262;stroke:none;stroke-width:1.05833;stroke-dasharray:none;stroke-opacity:1"
       d="m 46.365798,63.968367 c 1.35391,-10.28395 8.851336,-27.492755 -12.555218,-30.31098 -13.143931,17.129509 4.326011,23.996486 12.555218,30.31098 z"
       inkscape:transform-center-x="-5.0902972"
       inkscape:transform-center-y="15.15549" />
    <path
       id="path160"
       style="fill:#000055;fill-opacity:0.42262;stroke:none;stroke-width:1.05833;stroke-dasharray:none;stroke-opacity:1"
       d="m 33.810579,66.465754 c 5.186347,-8.983012 18.69859,-22.012734 1e-6,-32.808368 -18.698588,10.795639 -5.186344,23.825355 -1e-6,32.808368 z"
       inkscape:transform-center-x="1.0609172e-06"
       inkscape:transform-center-y="16.404183" />
    <path
       id="path161"
       style="fill:#000055;fill-opacity:0.42262;stroke:none;stroke-width:1.05833;stroke-dasharray:none;stroke-opacity:1"
       d="M 21.255361,63.968365 C 29.48457,57.653873 46.954514,50.786891 33.810581,33.657386 12.404026,36.475616 19.901455,53.684415 21.255361,63.968365 Z"
       inkscape:transform-center-x="5.0902987"
       inkscape:transform-center-y="15.155488" />
    <path
       id="path162"
       style="fill:#000055;fill-opacity:0.42262;stroke:none;stroke-width:1.05833;stroke-dasharray:none;stroke-opacity:1"
       d="M 10.611561,56.856404 C 20.630811,54.171756 39.398815,54.51295 33.810582,33.657386 12.955014,28.069157 13.296213,46.837156 10.611561,56.856404 Z"
       inkscape:transform-center-x="11.090232"
       inkscape:transform-center-y="11.09023" />
    <path
       id="path163"
       style="fill:#000055;fill-opacity:0.42262;stroke:none;stroke-width:1.05833;stroke-dasharray:none;stroke-opacity:1"
       d="M 3.4996019,46.212603 C 13.783552,47.566513 30.992358,55.063939 33.810582,33.657386 16.681073,20.513455 9.8140972,37.983397 3.4996019,46.212603 Z"
       inkscape:transform-center-x="15.15549"
       inkscape:transform-center-y="5.0902971" />
    <path
       id="path164"
       style="fill:#000055;fill-opacity:0.42262;stroke:none;stroke-width:1.05833;stroke-dasharray:none;stroke-opacity:1"
       d="m 1.0022148,33.657384 c 8.983012,5.186347 22.0127352,18.698591 32.8083672,2e-6 -10.795638,-18.698588 -23.8253535,-5.186344 -32.8083672,-2e-6 z"
       inkscape:transform-center-x="16.404184" />
    <path
       id="path165"
       style="fill:#000055;fill-opacity:0.42262;stroke:none;stroke-width:1.05833;stroke-dasharray:none;stroke-opacity:1"
       d="M 3.4996039,21.102165 C 9.8140958,29.331375 16.681078,46.80132 33.810582,33.657386 30.992353,12.250831 13.783554,19.748261 3.4996039,21.102165 Z"
       inkscape:transform-center-x="15.155489"
       inkscape:transform-center-y="-5.0902981" />
    <path
       id="path166"
       style="fill:#000055;fill-opacity:0.42262;stroke:none;stroke-width:1.05833;stroke-dasharray:none;stroke-opacity:1"
       d="M 10.611565,10.458365 C 13.296212,20.477615 12.955018,39.24562 33.810582,33.657386 39.398812,12.801819 20.630812,13.143018 10.611565,10.458365 Z"
       inkscape:transform-center-x="11.09023"
       inkscape:transform-center-y="-11.090232" />
    <path
       id="path167"
       style="fill:#000055;fill-opacity:0.42262;stroke:none;stroke-width:1.05833;stroke-dasharray:none;stroke-opacity:1"
       d="M 21.255366,3.3464061 C 19.901455,13.630356 12.404029,30.839162 33.810582,33.657386 46.954513,16.527878 29.484571,9.6609019 21.255366,3.3464061 Z"
       inkscape:transform-center-x="5.0902976"
       inkscape:transform-center-y="-15.15549" />
    <path
       id="path11"
       style="fill:none;fill-opacity:0.42262;stroke:#000000;stroke-width:1.02526;stroke-dasharray:none;stroke-opacity:1"
       d="m 33.810581,1.065682 c -5.186346,8.983013 -18.69859,22.012732 0,32.808369 18.698588,-10.795638 5.186345,-23.825355 0,-32.808369 z"
       inkscape:transform-center-y="-16.404184" />
    <path
       id="path168"
       style="fill:none;fill-opacity:0.42262;stroke:#000000;stroke-width:1.02526;stroke-dasharray:none;stroke-opacity:1"
       d="M 46.3658,3.5630706 C 38.136591,9.8775637 20.666648,16.744543 33.810581,33.874051 55.217135,31.055822 47.719707,13.847022 46.3658,3.5630706 Z"
       inkscape:transform-center-y="-15.15549"
       inkscape:transform-center-x="-5.0902984" />
    <path
       id="path169"
       style="fill:#000055;fill-opacity:0.42262;stroke:#000000;stroke-width:1.02526;stroke-dasharray:none;stroke-opacity:1"
       d="m 57.009601,10.675031 c -10.01925,2.684649 -28.787252,2.343453 -23.19902,23.19902 20.855566,5.58823 20.514369,-13.17977 23.19902,-23.19902 z"
       inkscape:transform-center-y="-11.090232"
       inkscape:transform-center-x="-11.090232" />
    <path
       id="path170"
       style="fill:none;fill-opacity:0.42262;stroke:#000000;stroke-width:1.02526;stroke-dasharray:none;stroke-opacity:1"
       d="M 64.121561,21.318832 C 53.837611,19.964923 36.628808,12.467496 33.810581,33.874051 50.940089,47.017982 57.807066,29.548041 64.121561,21.318832 Z"
       inkscape:transform-center-y="-5.0902989"
       inkscape:transform-center-x="-15.15549" />
    <path
       id="path171"
       style="fill:none;fill-opacity:0.42262;stroke:#000000;stroke-width:1.02526;stroke-dasharray:none;stroke-opacity:1"
       d="m 66.618949,33.874051 c -8.983012,-5.186346 -22.012732,-18.698589 -32.808368,0 10.795637,18.698588 23.825354,5.186345 32.808368,0 z"
       inkscape:transform-center-x="-16.404184" />
    <path
       id="path172"
       style="fill:none;fill-opacity:0.42262;stroke:#000000;stroke-width:1.02526;stroke-dasharray:none;stroke-opacity:1"
       d="M 64.121561,46.42927 C 57.807068,38.200061 50.940088,20.730118 33.810581,33.874051 36.628809,55.280605 53.837609,47.783177 64.121561,46.42927 Z"
       inkscape:transform-center-x="-15.15549"
       inkscape:transform-center-y="5.0902982" />
    <path
       id="path173"
       style="fill:none;fill-opacity:0.42262;stroke:#000000;stroke-width:1.02526;stroke-dasharray:none;stroke-opacity:1"
       d="M 57.009601,57.073071 C 54.324952,47.053821 54.666147,28.285819 33.810581,33.874051 28.22235,54.729617 46.99035,54.38842 57.009601,57.073071 Z"
       inkscape:transform-center-x="-11.090232"
       inkscape:transform-center-y="11.090232" />
    <path
       id="path174"
       style="fill:none;fill-opacity:0.42262;stroke:#000000;stroke-width:1.02526;stroke-dasharray:none;stroke-opacity:1"
       d="M 46.3658,64.185031 C 47.719709,53.901081 55.217135,36.692277 33.810581,33.874051 20.666649,51.003558 38.136591,57.870536 46.3658,64.185031 Z"
       inkscape:transform-center-x="-5.0902987"
       inkscape:transform-center-y="15.15549" />
    <path
       id="path175"
       style="fill:none;fill-opacity:0.42262;stroke:#000000;stroke-width:1.02526;stroke-dasharray:none;stroke-opacity:1"
       d="m 33.810581,66.682419 c 5.186346,-8.983012 18.698589,-22.012733 0,-32.808368 -18.698588,10.795636 -5.186345,23.825354 0,32.808368 z"
       inkscape:transform-center-y="16.404184" />
    <path
       id="path176"
       style="fill:none;fill-opacity:0.42262;stroke:#000000;stroke-width:1.02526;stroke-dasharray:none;stroke-opacity:1"
       d="M 21.255362,64.185031 C 29.484571,57.870538 46.954514,51.003557 33.810581,33.874051 12.404027,36.692278 19.901455,53.901079 21.255362,64.185031 Z"
       inkscape:transform-center-y="15.15549"
       inkscape:transform-center-x="5.0902982" />
    <path
       id="path177"
       style="fill:none;fill-opacity:0.42262;stroke:#000000;stroke-width:1.02526;stroke-dasharray:none;stroke-opacity:1"
       d="M 10.611561,57.073071 C 20.630811,54.388422 39.398814,54.729616 33.810581,33.874051 12.955015,28.28582 13.296212,47.05382 10.611561,57.073071 Z"
       inkscape:transform-center-y="11.090232"
       inkscape:transform-center-x="11.090232" />
    <path
       id="path178"
       style="fill:none;fill-opacity:0.42262;stroke:#000000;stroke-width:1.02526;stroke-dasharray:none;stroke-opacity:1"
       d="M 3.4996006,46.42927 C 13.783551,47.783179 30.992356,55.280605 33.810581,33.874051 16.681074,20.730119 9.8140961,38.200061 3.4996006,46.42927 Z"
       inkscape:transform-center-y="5.0902987"
       inkscape:transform-center-x="15.155491" />
    <path
       id="path179"
       style="fill:none;fill-opacity:0.42262;stroke:#000000;stroke-width:1.02526;stroke-dasharray:none;stroke-opacity:1"
       d="m 1.0022123,33.874051 c 8.9830127,5.186346 22.0127347,18.698589 32.8083687,0 -10.795636,-18.698589 -23.8253536,-5.186345 -32.8083687,0 z"
       inkscape:transform-center-x="16.404185" />
    <path
       id="path180"
       style="fill:none;fill-opacity:0.42262;stroke:#000000;stroke-width:1.02526;stroke-dasharray:none;stroke-opacity:1"
       d="M 3.4996008,21.318832 C 9.8140936,29.548041 16.681076,47.017984 33.810581,33.874051 30.992354,12.467496 13.783553,19.964925 3.4996008,21.318832 Z"
       inkscape:transform-center-x="15.155491"
       inkscape:transform-center-y="-5.0902982" />
    <path
       id="path181"
       style="fill:none;fill-opacity:0.42262;stroke:#000000;stroke-width:1.02526;stroke-dasharray:none;stroke-opacity:1"
       d="M 10.611561,10.675031 C 13.29621,20.69428 12.955017,39.462284 33.810581,33.874051 39.398813,13.018484 20.630812,13.359682 10.611561,10.675031 Z"
       inkscape:transform-center-x="11.090232"
       inkscape:transform-center-y="-11.090232" />
    <path
       id="path182"
       style="fill:none;fill-opacity:0.42262;stroke:#000000;stroke-width:1.02526;stroke-dasharray:none;stroke-opacity:1"
       d="M 21.255362,3.5630706 C 19.901454,13.84702 12.404028,31.055826 33.810581,33.874051 46.954514,16.744543 29.484571,9.877566 21.255362,3.5630706 Z"
       inkscape:transform-center-x="5.0902982"
       inkscape:transform-center-y="-15.155491" />
  </g>
  <metadata
     id="metadata13">
    <rdf:RDF>
      <cc:Work
         rdf:about="">
        <cc:license
           rdf:resource="http://creativecommons.org/licenses/by-sa/4.0/" />
        <dc:title>Throat Chakra Lotus Flower</dc:title>
        <dc:creator>
          <cc:Agent>
            <dc:title>Nicco Kunzmann</dc:title>
          </cc:Agent>
        </dc:creator>
        <dc:date>2024</dc:date>
        <dc:rights>
          <cc:Agent>
            <dc:title>Nicco Kunzmann</dc:title>
          </cc:Agent>
        </dc:rights>
      </cc:Work>
      <cc:License
         rdf:about="http://creativecommons.org/licenses/by-sa/4.0/">
        <cc:permits
           rdf:resource="http://creativecommons.org/ns#Reproduction" />
        <cc:permits
           rdf:resource="http://creativecommons.org/ns#Distribution" />
        <cc:requires
           rdf:resource="http://creativecommons.org/ns#Notice" />
        <cc:requires
           rdf:resource="http://creativecommons.org/ns#Attribution" />
        <cc:permits
           rdf:resource="http://creativecommons.org/ns#DerivativeWorks" />
        <cc:requires
           rdf:resource="http://creativecommons.org/ns#ShareAlike" />
      </cc:License>
    </rdf:RDF>
  </metadata>
</svg>
