<?xml version="1.0" encoding="UTF-8" standalone="no"?>
<!-- Created with Inkscape (http://www.inkscape.org/) -->

<svg
   width="500mm"
   height="500mm"
   viewBox="30 30 500.00003 500.00003"
   version="1.1"
   id="svg1"
   xml:space="preserve"
   inkscape:version="1.3.2 (1:1.3.2+202311252150+091e20ef0f)"
   sodipodi:docname="throat.svg"
   xmlns:inkscape="http://www.inkscape.org/namespaces/inkscape"
   xmlns:sodipodi="http://sodipodi.sourceforge.net/DTD/sodipodi-0.dtd"
   xmlns="http://www.w3.org/2000/svg"
   xmlns:svg="http://www.w3.org/2000/svg"
   xmlns:rdf="http://www.w3.org/1999/02/22-rdf-syntax-ns#"
   xmlns:cc="http://creativecommons.org/ns#"
   xmlns:dc="http://purl.org/dc/elements/1.1/"><title
     id="title12">Chakras</title><sodipodi:namedview
     id="namedview1"
     pagecolor="#505050"
     bordercolor="#eeeeee"
     borderopacity="1"
     inkscape:showpageshadow="0"
     inkscape:pageopacity="0"
     inkscape:pagecheckerboard="0"
     inkscape:deskcolor="#505050"
     inkscape:document-units="mm"
     inkscape:zoom="0.30440537"
     inkscape:cx="883.69006"
     inkscape:cy="983.8854"
     inkscape:window-width="3440"
     inkscape:window-height="1389"
     inkscape:window-x="0"
     inkscape:window-y="25"
     inkscape:window-maximized="1"
     inkscape:current-layer="layer1" /><defs
     id="defs1" /><g
     inkscape:label="Layer 1"
     inkscape:groupmode="layer"
     id="layer1"
     transform="translate(129.57714,162.64742)"><path
       id="path1"
       style="fill:#000055;fill-opacity:0.713725;stroke:none;stroke-width:1.05833;stroke-opacity:0.501384"
       d="m 150.93468,-61.411931 c -0.90231,-0.01094 -1.68949,0.479176 -2.45721,1.0573 -0.57281,0.43135 -1.66735,-1.092035 -2.25826,-0.733805 -0.523,0.317054 -0.53636,2.541969 -1.13223,2.548681 -1.18447,0.01334 -2.07077,-1.764626 -3.2241,-1.494482 -1.11098,0.260232 -1.13489,2.136 -2.14353,2.669604 -0.88082,0.465987 -2.05891,-0.144168 -2.98018,0.235645 -0.95759,0.394782 -1.45343,1.527529 -2.3704,2.009179 -0.63436,0.33321 -1.55966,0.06315 -2.07481,0.561207 -0.7869,0.760798 -0.43808,2.1793 -0.96377,3.139343 -0.44489,0.812482 -0.91485,1.841451 -1.79885,2.118217 -1.01092,0.316499 -2.15553,-1.349735 -3.07113,-0.817005 -0.86167,0.501352 -0.42819,1.952321 -0.76016,2.89233 -0.92075,2.607212 -2.10068,5.125575 -3.39773,7.567497 -0.42488,0.799907 0.11025,0.850119 -0.47594,1.582332 -0.52467,0.655375 -1.5797,1.892473 -1.62005,2.702161 -0.0592,1.187969 1.02509,2.15674 0.95239,3.299023 -0.0464,0.72988 -0.6395,1.319485 -0.87075,2.013314 -0.51724,1.551877 -0.22942,3.415803 -1.1436,4.772319 -0.62872,0.93299 -2.52277,0.858634 -2.74711,1.96112 -0.25422,1.249311 1.67162,2.02958 1.99677,3.262334 0.37934,1.43821 0.72852,3.258957 -0.14934,4.459676 -0.47371,0.64793 -1.82881,0.136099 -2.26911,0.807186 -1.07937,1.645133 0.15109,3.937234 0.39997,5.8890457 0.43557,3.4158804 1.01539,6.8274186 1.90945,10.1528687 0.34239,1.2735109 0.54679,2.6598704 1.31671,3.7305216 0.43548,0.6055806 1.32375,0.7749916 1.7632,1.3776937 0.35367,0.4850565 1.13942,-0.00759 1.31517,0.5705078 0.31089,1.0225478 0.0369,3.1139375 0.40669,4.1093095 1.45515,3.91704 4.652,7.143857 6.17017,8.753471 0.71507,0.758143 -0.12569,2.083938 -0.0873,3.125391 0.0415,1.127168 0.21334,2.245764 0.34313,3.366203 0.57433,4.957898 1.75452,10.236641 -1.91926,14.647168 -1.60108,1.922152 -2.99426,4.032138 -4.21783,6.217191 -0.42711,0.76274 -0.69163,1.655866 -1.90789,1.714108 -0.89301,0.04276 -1.60228,0.935573 -2.08308,1.689302 -0.37187,0.582959 -0.6606,1.115261 -1.9358,0.73794 -1.20773,-0.357359 -2.23037,1.246254 -3.10627,2.151289 -0.31483,0.325303 -0.4253,0.812135 -0.73639,1.141016 -0.40993,0.433372 -0.90487,0.80425 -1.44746,1.052132 -0.60062,0.274407 -1.27827,0.34014 -1.92959,0.449068 -4.23898,0.708955 -8.544,0.944976 -12.825066,1.324467 -2.629841,0.233123 -5.364869,-0.154802 -7.89926,0.584978 -1.90797,0.556926 -3.738406,1.523954 -5.249292,2.827734 -2.684749,2.316739 -6.298832,3.578379 -8.764839,6.192904 -3.09152,3.277703 -4.401482,8.550294 -5.917985,12.904122 -2.343165,6.727127 -2.99795,13.984422 -3.421497,21.095354 -0.436167,7.32279 2.40212,16.09636 1.518254,20.19773 -1.478064,6.85865 -5.487285,13.43133 -7.262606,20.74551 -2.056345,8.47193 -1.325237,17.50104 -9.285222,24.64294 -2.646983,2.3749 -5.797075,3.92291 -8.66252,6.03529 -2.669932,1.96821 -5.048006,4.51009 -7.724076,6.4642 -5.252936,3.83578 -10.491316,7.71061 -15.995923,11.17555 -5.754641,3.62228 -15.2279199,7.2973 -22.7340132,8.53746 -0.7473759,0.12348 -2.6569735,0.2001 -2.5057902,-0.56276 0.1865909,-0.94152 -1.546758,-1.60186 -2.5068237,-2.80913 -1.8571959,-2.33537 -5.4416439,-2.66267 -8.7121299,-3.80958 -2.933163,-1.02862 -5.586058,-3.48592 -7.707023,-5.06843 -2.294284,-1.71183 -3.619499,-4.04558 -4.326867,-5.10563 -1.951132,-2.92392 -5.860581,-7.54423 -8.95811,-2.40812 -0.925059,0.25321 -2.412082,-0.0525 -2.298568,1.95699 0.278666,4.93313 -1.745446,10.69002 -2.144055,15.44195 -0.08426,1.00446 -0.623935,1.48502 -0.398942,2.47323 0.309715,1.36033 1.496812,3.15989 1.463477,4.72891 -0.02074,0.97607 1.718223,2.07212 1.013374,2.74764 -1.047318,-0.18548 -2.479571,-1.41213 -4.606437,-1.64331 -1.062341,-0.11547 -2.333211,-1.16028 -3.340881,-1.67794 -3.138347,-1.61222 -7.983043,-5.54793 -10.994678,-5.33352 -3.652424,0.26002 -4.857086,3.70385 -1.312581,4.53564 4.424535,1.03831 6.389254,3.99392 9.084717,6.12417 1.524147,1.20455 2.994254,2.44535 4.750097,3.37499 1.75441,0.92888 3.794482,1.54685 5.369182,2.72852 0.53044,0.39805 2.085074,0.52568 1.869653,1.1529 -2.077782,2.13832 -8.457764,1.27558 -12.681913,1.21853 -2.304415,-0.0311 -6.220837,0.313 -6.293673,2.88819 -0.07341,2.59552 3.275151,1.57318 5.179529,1.39372 3.252006,-0.30645 6.466338,0.97744 9.724988,1.20251 1.420154,0.0981 3.111802,0.82511 4.53719,0.84801 1.063698,0.0171 1.862226,-0.63578 2.919719,-0.73691 2.053271,-0.19635 4.399662,-1.88392 6.159314,-1.20561 1.022334,0.39409 2.263497,0.10456 2.802929,0.30334 -0.711677,0.71108 -2.068232,1.65043 -3.470589,2.63447 -1.05197,0.73813 -2.508963,1.07319 -3.696415,1.23248 -1.881083,0.25233 -4.266057,4.34724 -0.716752,4.44004 1.15353,0.0302 2.122927,-1.15298 3.611666,-1.10691 1.650834,0.0511 3.130912,-1.05684 4.714957,-1.52446 2.249828,-0.66417 4.306801,-1.2408 5.011581,-2.43551 1.057001,-1.79173 2.327393,-3.52579 3.940845,-4.83898 0.568784,-0.46294 0.766594,-1.34647 1.797306,-1.36426 1.015655,-0.0175 1.962316,-0.6192 2.920752,-0.93224 1.824897,-0.59605 3.720735,-0.80804 5.6115434,-0.98598 0.7517458,-0.0708 1.8167677,-0.63866 2.2649781,-0.031 -1.4350023,1.96942 -12.0717105,11.61505 -7.3344355,22.62963 1.358579,3.15879 2.060661,6.73547 4.2157628,9.41493 2.7470721,3.41542 7.6072392,5.07845 10.5177042,7.8605 2.2851067,2.18428 5.275385,3.48269 7.1406495,4.5036 2.4992325,1.3679 4.2105365,3.64555 6.0110025,6.07611 3.84744,5.19398 9.721822,9.24121 14.448731,12.81111 19.597459,14.80051 30.783421,14.82738 47.615698,15.92357 17.362249,1.1307 108.219323,-2.01835 162.332213,-1.73632 18.33311,0.0956 34.9293,-5.50313 52.48672,-22.76192 2.56521,-2.52158 4.80563,-3.1362 6.34535,-3.96979 4.0263,-2.17978 5.50977,-4.51351 8.44031,-6.52931 6.39184,-4.39669 11.48592,-6.54886 12.58166,-14.16348 0.34708,-2.41199 2.53842,-6.24013 2.17765,-9.19117 -0.93154,-7.61964 -6.46674,-13.76661 -6.00119,-13.82603 2.73727,-0.34933 5.16123,-0.3866 6.41977,-0.0667 5.93446,1.50863 4.88344,2.22149 6.5412,1.94717 1.27869,-0.21159 3.14072,1.20498 4.11189,1.73116 2.72078,1.47402 3.31534,-3.32696 1.3715,-4.05195 -1.1154,-0.41601 0.74708,-0.94135 2.2381,-1.39217 0.58882,-0.17804 0.62167,-0.8004 1.1958,-1.02267 0.59642,-0.23089 1.71993,-0.098 2.3213,-0.3142 2.93041,-1.05311 6.87627,-2.29604 8.10442,-3.69589 1.66791,-1.9012 5.67027,-1.65047 6.9174,-1.55391 3.44382,0.26665 4.08962,-3.40673 1.06299,-4.35478 -0.7944,-0.24883 -0.11868,-0.5706 1.07487,-1.40405 2.41557,-1.68676 7.20407,-0.75771 7.82691,-3.39204 0.62302,-2.63502 -4.14863,-2.83754 -6.70192,-2.83187 -3.90171,0.009 -6.18844,0.99516 -9.30124,3.3476 -0.69601,0.526 -2.46691,1.13287 -4.17597,1.13689 -1.50599,0.004 -2.99993,0.0591 -3.84059,1.10432 -0.17278,0.21481 0.25147,-2.34821 0.70796,-4.46846 0.41455,-1.92545 0.89427,-3.34259 0.24598,-4.6948 -0.8391,-1.75026 -0.0944,-6.9352 -0.40101,-9.01547 -0.47242,-3.206 0.16254,-3.61556 -0.49195,-6.59598 -0.28966,-1.31896 -1.85185,-1.07918 -3.27681,-0.44494 -0.40689,0.18111 -0.6604,-0.75028 -1.03869,-0.74259 -2.40631,0.0489 -4.55952,1.57638 -6.43062,3.59358 -1.33708,1.44149 -1.99929,3.43778 -3.39256,4.82503 -3.32806,3.31371 -7.16528,5.95927 -11.80548,7.70702 -0.97112,0.36578 -2.13217,0.37991 -3.1073,0.74724 -1.3332,0.50221 -2.34414,1.50006 -3.6835,2.11615 -1.15795,0.53264 -1.88977,1.72507 -2.94865,2.43448 -0.77967,0.52233 -1.91369,1.45813 -2.72852,1.34565 -16.94113,-2.33852 -32.34951,-12.30601 -45.7817,-22.46891 -2.79975,-2.11831 -5.59313,-4.72103 -8.67492,-6.78046 -2.67353,-1.78662 -5.66331,-2.92116 -7.83984,-5.9831 -2.34538,-3.29953 -3.99392,-10.3808 -4.85551,-15.91841 -0.65519,-4.21101 -0.4554,-8.50652 -1.68776,-12.83591 -1.76108,-6.18699 -5.06896,-12.55823 -4.99866,-18.95491 0.0786,-7.15289 3.38516,-14.29107 2.69803,-21.63176 -0.9275,-9.908581 -2.04503,-20.441125 -6.72827,-29.093312 -2.14197,-3.957213 -4.87896,-5.731319 -9.99112,-8.760189 -1.80913,-1.071872 -3.28419,-2.352508 -5.33301,-2.857707 -4.4851,-1.10593 -9.86543,-0.486303 -14.4291,-1.244885 -2.18768,-0.363649 -4.60068,0.01598 -6.60838,-0.943095 -1.07683,-0.514397 -2.17646,-1.331442 -2.62051,-2.439128 -0.52279,-1.304091 -1.64879,-2.478427 -3.09283,-2.285648 -1.58036,0.210974 -1.90277,-0.727807 -2.9807,-2.056206 -0.36006,-0.443726 -1.18035,-0.494911 -1.58957,-0.960148 -1.94083,-2.206492 -4.02687,-5.399742 -5.60896,-7.997444 -2.32982,-3.825477 -2.35078,-8.029897 -1.80764,-12.027173 0.37153,-2.734322 -0.15783,-5.31141 0.56017,-8.259444 0.13893,-0.570447 3.58462,-4.470307 4.9444,-7.299813 0.71091,-1.47925 1.15181,-4.773821 1.82883,-4.862236 1.46374,-0.1911532 -0.19241,3.640871 1.02888,3.532084 1.58059,-0.140788 0.0782,-3.204935 0.5023,-4.7340775 0.25567,-0.9220036 0.84047,-1.720493 1.21026,-2.6029419 0.85569,-2.0419843 1.78736,-4.0736876 2.32957,-6.22029216737 C 182.78757,-1.7414337 182.80686,-3.5723385 182.95082,-5.3740078 c 0.17042,-2.1329255 1.14309,-5.1815122 -0.0842,-6.9442792 -0.37118,-0.533119 -1.57734,0.08235 -1.8867,-0.488859 -0.66106,-1.220568 1.00053,-2.598038 1.32756,-3.947046 0.76541,-3.157303 1.78563,-6.401924 1.46762,-9.63507 -0.15154,-1.540502 -1.26262,-2.851668 -1.58027,-4.366659 -0.2483,-1.184244 0.15143,-2.476991 -0.23978,-3.622001 -0.54287,-1.588929 -2.22158,-2.60728 -2.81223,-4.179073 -0.49724,-1.323235 0.0863,-2.93746 -0.53537,-4.206979 -0.88174,-1.800487 -3.89862,-2.283465 -4.2478,-4.257621 -0.45127,-2.551315 -2.04542,-3.36844 -3.45405,-4.134114 -1.07906,-0.586523 -0.52292,-2.559911 -1.418,-3.400826 -1.25789,-1.18171 -4.74681,0.02681 -4.89376,-1.68982 -0.0811,-0.947919 -0.32251,-2.552955 -1.98903,-2.632914 -0.41925,-0.02012 -0.55464,1.376283 -4.16202,0.172083 -0.50535,-0.168694 -0.94102,0.57405 -1.46864,0.490926 -0.72923,-0.114889 -1.5544,-1.040068 -2.26653,-1.227316 -2.05186,-0.539512 -2.35453,-1.951155 -3.7729,-1.968355 z M 95.426953,132.86252 c 1.968688,1.3254 1.986784,7.36583 2.800346,9.16326 1.320686,2.91784 1.988301,5.18821 1.19631,8.17211 -0.538646,2.02941 1.978871,3.00492 1.478471,5.11338 -0.44183,1.8617 2.16913,3.08258 1.24333,4.65398 -0.4457,0.75652 1.0785,1.83384 1.26659,2.61638 0.20586,0.85646 -0.89714,1.41958 -0.81804,2.27066 0.80669,8.68032 4.44598,17.55909 2.40502,26.03511 -0.62967,2.61511 -2.39598,5.74152 -3.69021,8.1318 -0.93956,1.73526 -1.533788,3.14392 -2.681495,4.72374 -0.832971,1.14661 -2.162125,1.50829 -2.807064,2.61173 -1.164943,1.99312 -1.2325,4.45747 -1.622123,6.73292 -0.443034,2.58739 -0.797171,5.20863 -0.807703,7.83363 -0.0058,1.44702 0.595583,2.90217 0.410311,4.3217 -0.09376,0.71839 -0.712106,1.27704 -1.201477,1.81126 -0.47452,0.51801 -0.344099,1.977 -0.868164,2.48254 -0.633329,0.61093 -2.033357,0.84149 -2.770374,0.42013 -3.05926,-1.74901 -10.151263,-2.77889 -15.933911,-3.59668 -2.986925,-0.42242 -4.273294,-0.85731 -7.009908,-1.74977 -5.426317,-1.7696 -10.989868,-2.99845 -18.182869,-3.7393 -2.574523,-0.26516 -6.698099,-1.66641 -9.04596,-2.66496 -10.718714,-4.55868 -15.766683,-5.07764 -21.798152,-6.44198 12.574951,-3.48961 33.357728,-8.90405 42.856815,-15.72927 4.564783,-3.27987 9.751417,-6.5414 14.311788,-8.62997 2.550156,-1.16792 4.513145,-3.01127 5.349028,-6.46989 1.460176,-6.04174 4.678717,-9.4603 7.338053,-13.63844 4.390313,-6.89767 4.599841,-15.35313 7.08949,-23.22701 1.008425,-3.18926 0.829626,-7.47873 1.491898,-11.20706 z M 202.1052,149.57726 c 0,0 2.18612,19.62005 6.90087,26.7596 1.87164,2.83422 2.80453,5.56743 2.88872,7.90288 0.23661,6.56368 3.06126,8.3159 4.78058,8.99428 5.18687,2.04661 9.76047,5.42175 14.84716,7.70599 2.87396,1.2906 5.53669,2.9807 8.26151,4.40387 9.09782,4.75176 19.59814,6.11145 29.4535,8.97878 3.03219,0.88219 7.10856,1.78272 9.12967,2.53059 -5.00713,1.08533 -12.60484,3.48224 -17.20876,3.68919 -6.01228,0.27024 -9.87274,1.05025 -16.77004,2.18746 -4.12274,0.67974 -8.22448,1.55527 -12.38684,1.92081 -4.05966,0.35652 -8.11135,0.40883 -12.24215,1.19269 -0.70803,0.13436 -1.47296,0.57712 -2.1978,0.5116 -0.4465,-0.0404 -0.85384,-0.55847 -1.29449,-0.61237 -0.59549,-0.0728 -1.07854,0.12214 -1.66347,-0.0145 -0.61393,-0.14335 -1.3297,-0.62039 -1.94096,-0.77153 -0.48834,-0.12074 -1.005,-0.074 -1.48518,-0.23668 -0.39942,-0.13533 -0.76039,-0.49223 -1.17874,-0.50075 -0.49188,-0.01 -0.94078,0.0648 -1.22215,-0.10955 -0.43969,-0.27233 -0.6096,-0.87914 -0.96325,-1.26711 -0.45299,-0.49694 -1.20537,-1.01637 -1.46864,-1.64641 -0.15987,-0.38256 0.10008,-0.84865 0.002,-1.24488 -0.92045,-3.70203 -1.32473,-7.269 -1.92649,-10.86704 -0.24711,-1.47751 -0.13464,-3.20833 -0.55604,-4.74338 -0.13639,-0.49684 -0.80136,-0.43608 -1.03663,-0.8971 -0.27774,-0.54425 -0.14098,-1.60476 -0.33486,-2.18127 -2.51632,-7.48224 -5.32729,-12.47501 -5.46995,-20.25561 -0.10126,-5.52296 1.80617,-11.0672 1.42782,-16.48271 -0.0314,-0.44992 -0.8537,-1.20434 -0.53279,-1.52136 1.11007,-1.09658 0.81631,-2.39652 1.048,-3.66024 0.0504,-0.27467 -0.35998,-0.66401 -0.22169,-0.9064 0.64794,-1.13561 1.55021,-2.13395 1.33583,-3.22203 -0.15351,-0.77912 0.46765,-1.56451 0.37207,-2.35283 -0.1044,-0.86104 0.0803,-1.66747 0.66456,-2.23913 0.27604,-0.27009 0.98857,-1.0449 0.98857,-1.0449 z m -238.03612,36.90059 c 0.04996,0.002 0.103872,0.0221 0.161747,0.062 3.003778,2.06923 5.752407,7.02478 7.053833,10.82363 0.459294,1.34067 0.962444,3.30357 -0.09198,4.25038 -1.255133,1.12708 -2.351847,4.67255 -3.471623,4.63745 -0.28721,-0.009 -0.855461,-1.28914 -1.781286,-1.34824 -0.784924,-0.0501 -0.277703,-1.55109 -0.49196,-2.30787 -0.440139,-1.55461 -1.126111,-3.02979 -1.624707,-4.56665 -0.284382,-0.87657 -1.03847,-1.76835 -0.778764,-2.65255 0.628734,-2.14059 0.551798,-4.4413 0.449585,-6.65024 -0.0314,-0.67863 0.09222,-2.27175 0.575159,-2.24792 z m 370.80941,7.06933 c 0.0566,1.95465 -0.0897,2.81966 -0.0827,4.22972 0.007,1.47814 0.11289,2.95652 -0.8847,4.37234 -1.81997,2.58296 -0.27546,7.59686 -1.71411,6.88227 -0.65173,-0.32372 -1.13518,0.96678 -1.82521,1.19786 -0.46508,0.1557 -1.06876,0.38063 -1.46864,0.0966 -0.71016,-0.50437 -0.8591,-2.17089 -0.8444,-2.29391 0.31094,-2.60835 -1.88923,-3.08625 -1.19786,-4.34031 2.08568,-3.78309 4.1476,-7.65269 8.0176,-10.1446 z" /></g><metadata
     id="metadata12"><rdf:RDF><cc:Work
         rdf:about=""><dc:date>2024</dc:date><dc:creator><cc:Agent><dc:title>Nicco Kunzmann</dc:title></cc:Agent></dc:creator><dc:title>Chakras</dc:title><cc:license
           rdf:resource="http://creativecommons.org/licenses/by-sa/4.0/" /></cc:Work><cc:License
         rdf:about="http://creativecommons.org/licenses/by-sa/4.0/"><cc:permits
           rdf:resource="http://creativecommons.org/ns#Reproduction" /><cc:permits
           rdf:resource="http://creativecommons.org/ns#Distribution" /><cc:requires
           rdf:resource="http://creativecommons.org/ns#Notice" /><cc:requires
           rdf:resource="http://creativecommons.org/ns#Attribution" /><cc:permits
           rdf:resource="http://creativecommons.org/ns#DerivativeWorks" /><cc:requires
           rdf:resource="http://creativecommons.org/ns#ShareAlike" /></cc:License></rdf:RDF></metadata></svg>
